<?xml version="1.0" encoding="UTF-8" standalone="no"?>
<!-- Created with Inkscape (http://www.inkscape.org/) -->

<svg
   width="210mm"
   height="297mm"
   viewBox="0 0 210 297"
   version="1.1"
   id="svg5"
   inkscape:version="1.1 (c68e22c387, 2021-05-23)"
   sodipodi:docname="Vagina_000.svg"
   xmlns:inkscape="http://www.inkscape.org/namespaces/inkscape"
   xmlns:sodipodi="http://sodipodi.sourceforge.net/DTD/sodipodi-0.dtd"
   xmlns:xlink="http://www.w3.org/1999/xlink"
   xmlns="http://www.w3.org/2000/svg"
   xmlns:svg="http://www.w3.org/2000/svg">
  <sodipodi:namedview
     id="namedview7"
     pagecolor="#505050"
     bordercolor="#ffffff"
     borderopacity="1"
     inkscape:pageshadow="0"
     inkscape:pageopacity="0"
     inkscape:pagecheckerboard="1"
     inkscape:document-units="mm"
     showgrid="false"
     inkscape:zoom="0.23162178"
     inkscape:cx="395.04058"
     inkscape:cy="1765.8098"
     inkscape:window-width="1366"
     inkscape:window-height="706"
     inkscape:window-x="-8"
     inkscape:window-y="-8"
     inkscape:window-maximized="1"
     inkscape:current-layer="layer1"
     inkscape:snap-global="false"
     showguides="false" />
  <defs
     id="defs2">
    <linearGradient
       inkscape:collect="always"
       id="linearGradient10518">
      <stop
         style="stop-color:#ffffff;stop-opacity:1;"
         offset="0"
         id="stop10514" />
      <stop
         style="stop-color:#ffffff;stop-opacity:0;"
         offset="1"
         id="stop10516" />
    </linearGradient>
    <linearGradient
       inkscape:collect="always"
       id="linearGradient3612">
      <stop
         style="stop-color:#ffffff;stop-opacity:1;"
         offset="0"
         id="stop3608" />
      <stop
         style="stop-color:#ffffff;stop-opacity:0;"
         offset="1"
         id="stop3610" />
    </linearGradient>
    <linearGradient
       inkscape:collect="always"
       id="linearGradient4121">
      <stop
         style="stop-color:#ffffff;stop-opacity:1;"
         offset="0"
         id="stop4117" />
      <stop
         style="stop-color:#ffffff;stop-opacity:0;"
         offset="1"
         id="stop4119" />
    </linearGradient>
    <linearGradient
       inkscape:collect="always"
       id="linearGradient4990">
      <stop
         style="stop-color:#ffffff;stop-opacity:1;"
         offset="0"
         id="stop4986" />
      <stop
         style="stop-color:#ffffff;stop-opacity:0;"
         offset="1"
         id="stop4988" />
    </linearGradient>
    <filter
       inkscape:collect="always"
       style="color-interpolation-filters:sRGB"
       id="filter38583"
       x="-0.11873503"
       y="-0.1144357"
       width="1.2374701"
       height="1.2288714">
      <feGaussianBlur
         inkscape:collect="always"
         stdDeviation="7.4851007"
         id="feGaussianBlur38585" />
    </filter>
    <linearGradient
       inkscape:collect="always"
       xlink:href="#linearGradient4990"
       id="linearGradient5190"
       gradientUnits="userSpaceOnUse"
       x1="54.71867"
       y1="456.04138"
       x2="55.141907"
       y2="435.62262"
       gradientTransform="matrix(-0.91152321,-0.41124863,-0.41124863,0.91152321,296.02246,152.03346)" />
    <linearGradient
       inkscape:collect="always"
       xlink:href="#linearGradient4121"
       id="linearGradient4123"
       x1="50.550873"
       y1="481.82471"
       x2="54.310818"
       y2="469.4021"
       gradientUnits="userSpaceOnUse" />
    <linearGradient
       inkscape:collect="always"
       xlink:href="#linearGradient4121"
       id="linearGradient4418"
       gradientUnits="userSpaceOnUse"
       x1="50.550873"
       y1="481.82471"
       x2="54.310818"
       y2="469.4021" />
    <linearGradient
       inkscape:collect="always"
       xlink:href="#linearGradient4121"
       id="linearGradient4420"
       gradientUnits="userSpaceOnUse"
       x1="50.550873"
       y1="481.82471"
       x2="54.310818"
       y2="469.4021" />
    <linearGradient
       inkscape:collect="always"
       xlink:href="#linearGradient4121"
       id="linearGradient4422"
       gradientUnits="userSpaceOnUse"
       x1="50.550873"
       y1="481.82471"
       x2="54.310818"
       y2="469.4021" />
    <linearGradient
       inkscape:collect="always"
       xlink:href="#linearGradient4121"
       id="linearGradient4424"
       gradientUnits="userSpaceOnUse"
       x1="50.550873"
       y1="481.82471"
       x2="54.310818"
       y2="469.4021" />
    <linearGradient
       inkscape:collect="always"
       xlink:href="#linearGradient3612"
       id="linearGradient5289"
       x1="-100.00695"
       y1="447.45273"
       x2="-60.741997"
       y2="414.53979"
       gradientUnits="userSpaceOnUse" />
    <linearGradient
       inkscape:collect="always"
       xlink:href="#linearGradient3612"
       id="linearGradient5291"
       gradientUnits="userSpaceOnUse"
       x1="-100.00695"
       y1="447.45273"
       x2="-54.43335"
       y2="419.07761" />
    <linearGradient
       inkscape:collect="always"
       xlink:href="#linearGradient10518"
       id="linearGradient10520"
       x1="114.57212"
       y1="508.38586"
       x2="110.72418"
       y2="493.47842"
       gradientUnits="userSpaceOnUse"
       gradientTransform="matrix(1.2111861,0,0,1.2111861,96.573518,-136.75725)" />
    <linearGradient
       inkscape:collect="always"
       xlink:href="#linearGradient4121"
       id="linearGradient10730"
       gradientUnits="userSpaceOnUse"
       x1="50.550873"
       y1="481.82471"
       x2="54.310818"
       y2="469.4021" />
    <linearGradient
       inkscape:collect="always"
       xlink:href="#linearGradient4121"
       id="linearGradient10732"
       gradientUnits="userSpaceOnUse"
       x1="50.550873"
       y1="481.82471"
       x2="54.310818"
       y2="469.4021" />
    <linearGradient
       inkscape:collect="always"
       xlink:href="#linearGradient4121"
       id="linearGradient10734"
       gradientUnits="userSpaceOnUse"
       x1="50.550873"
       y1="481.82471"
       x2="54.310818"
       y2="469.4021" />
    <linearGradient
       inkscape:collect="always"
       xlink:href="#linearGradient4121"
       id="linearGradient10736"
       gradientUnits="userSpaceOnUse"
       x1="50.550873"
       y1="481.82471"
       x2="54.310818"
       y2="469.4021" />
    <linearGradient
       inkscape:collect="always"
       xlink:href="#linearGradient4121"
       id="linearGradient10738"
       gradientUnits="userSpaceOnUse"
       x1="50.550873"
       y1="481.82471"
       x2="54.310818"
       y2="469.4021" />
    <linearGradient
       inkscape:collect="always"
       xlink:href="#linearGradient3612"
       id="linearGradient10758"
       gradientUnits="userSpaceOnUse"
       x1="-100.00695"
       y1="447.45273"
       x2="-60.741997"
       y2="414.53979" />
    <linearGradient
       inkscape:collect="always"
       xlink:href="#linearGradient3612"
       id="linearGradient10760"
       gradientUnits="userSpaceOnUse"
       x1="-100.00695"
       y1="447.45273"
       x2="-60.741997"
       y2="414.53979" />
    <linearGradient
       inkscape:collect="always"
       xlink:href="#linearGradient3612"
       id="linearGradient10762"
       gradientUnits="userSpaceOnUse"
       x1="-100.00695"
       y1="447.45273"
       x2="-60.741997"
       y2="414.53979" />
    <linearGradient
       inkscape:collect="always"
       xlink:href="#linearGradient3612"
       id="linearGradient10764"
       gradientUnits="userSpaceOnUse"
       x1="-100.00695"
       y1="447.45273"
       x2="-60.741997"
       y2="414.53979" />
    <linearGradient
       inkscape:collect="always"
       xlink:href="#linearGradient3612"
       id="linearGradient10766"
       gradientUnits="userSpaceOnUse"
       x1="-100.00695"
       y1="447.45273"
       x2="-60.741997"
       y2="414.53979" />
    <linearGradient
       inkscape:collect="always"
       xlink:href="#linearGradient3612"
       id="linearGradient10768"
       gradientUnits="userSpaceOnUse"
       x1="-100.00695"
       y1="447.45273"
       x2="-54.43335"
       y2="419.07761" />
    <linearGradient
       inkscape:collect="always"
       xlink:href="#linearGradient3612"
       id="linearGradient10770"
       gradientUnits="userSpaceOnUse"
       x1="-100.00695"
       y1="447.45273"
       x2="-60.741997"
       y2="414.53979" />
    <linearGradient
       inkscape:collect="always"
       xlink:href="#linearGradient3612"
       id="linearGradient10772"
       gradientUnits="userSpaceOnUse"
       x1="-100.00695"
       y1="447.45273"
       x2="-60.741997"
       y2="414.53979" />
    <linearGradient
       inkscape:collect="always"
       xlink:href="#linearGradient3612"
       id="linearGradient10774"
       gradientUnits="userSpaceOnUse"
       x1="-100.00695"
       y1="447.45273"
       x2="-60.741997"
       y2="414.53979" />
    <linearGradient
       inkscape:collect="always"
       xlink:href="#linearGradient10518"
       id="linearGradient10780"
       gradientUnits="userSpaceOnUse"
       gradientTransform="matrix(1.2111861,0,0,1.2111861,-157.66037,-272.53769)"
       x1="114.57212"
       y1="508.38586"
       x2="110.72418"
       y2="493.47842" />
    <linearGradient
       inkscape:collect="always"
       xlink:href="#linearGradient4990"
       id="linearGradient10784"
       gradientUnits="userSpaceOnUse"
       gradientTransform="matrix(-0.91152321,-0.41124863,-0.41124863,0.91152321,149.80708,20.668076)"
       x1="54.71867"
       y1="456.04138"
       x2="55.141907"
       y2="435.62262" />
  </defs>
  <g
     inkscape:label="Layer 1"
     inkscape:groupmode="layer"
     id="layer1">
    <path
       id="path19817"
       style="fill:#eed4c7;stroke:#000000;stroke-width:0.34633;fill-opacity:1"
       d="m 109.19728,79.947197 c 0,28.580763 -6.37286,54.455783 -16.676376,73.185623 -10.303517,18.72983 -24.941562,16.17913 -40.6642,16.17913 -15.722638,0 -29.552948,2.5507 -39.856465,-16.17914 C 1.6967214,134.40298 -4.6761365,108.52796 -4.676136,79.947197 c 9e-7,-57.161522 25.491432,-103.500092 56.936707,-103.500092 31.445276,-2e-6 56.936709,46.338569 56.936709,103.500092 z"
       sodipodi:nodetypes="sssssss" />
    <g
       id="g19599"
       transform="translate(58.828846,7.5685091)">
      <path
         id="path846"
         style="fill:#eed4c7;fill-opacity:1;stroke:#000000;stroke-width:0.07355417;stroke-miterlimit:4;stroke-dasharray:none"
         d="m 14.550419,88.95721 c 1.009667,20.60249 -9.6187731,28.61912 -13.4855652,42.06871 -3.7413374,13.01323 -7.8839844,32.12312 -7.9186999,28.02642 -0.05818,-6.86573 -4.6382609,-12.14541 -9.6076639,-24.34262 -4.969403,-12.19722 -16.789996,-23.84043 -14.366794,-44.039049 2.333789,-19.453323 10.453955,-35.478732 15.066387,-48.889647 4.612431,-13.410915 7.7135847,-28.43702 7.4801863,-24.346826 -0.3456873,6.058001 4.9584833,11.719146 9.6423089,24.701696 C 6.0444038,55.118443 13.591384,69.387881 14.550419,88.95721 Z"
         sodipodi:nodetypes="sssssssss" />
      <path
         id="path2788"
         style="fill:#f5d9cb;fill-opacity:1;stroke:#000000;stroke-width:0.07090833;stroke-miterlimit:4;stroke-dasharray:none"
         d="m 5.2483703,75.99138 c 2.6013393,16.241199 -4.74979176,39.40001 -8.4874953,49.56092 -3.648085,9.91728 -3.1276978,26.48928 -3.1458708,23.22033 -0.03046,-5.47849 -4.0270612,-13.77239 -7.7425342,-23.13663 -4.314914,-10.87504 -9.088807,-33.104015 -6.093043,-48.991304 2.792397,-14.808784 6.602211,-17.101138 9.600623,-27.588279 3.1572513,-11.042693 2.610129,-17.408065 2.487946,-14.144307 -0.180965,4.833965 0.2617323,4.08569 3.6198044,14.427474 3.345068,10.301735 7.2594826,11.03651 9.7605699,26.651796 z"
         sodipodi:nodetypes="sssssssss" />
      <path
         id="path5138"
         style="fill:#efded0;fill-opacity:1;stroke:#000000;stroke-width:0.08228542;stroke-miterlimit:4;stroke-dasharray:none"
         d="m -0.85713954,80.660995 c 0.4610126,11.453917 -1.93589366,28.608215 -3.90873806,35.728245 -1.9255417,6.94932 -4.5066387,16.84832 -4.5162309,14.55767 -0.016077,-3.83893 -0.6976893,-8.65117 -2.6588005,-15.21296 -2.277509,-7.62044 -3.940546,-23.48249 -2.359314,-34.615158 1.47389,-10.376929 3.484796,-11.983246 5.0674254,-19.331879 1.6664686,-7.737924 1.3776851,-12.198319 1.3131941,-9.911312 -0.095517,3.387295 1.280456,2.862957 3.0529223,10.109735 1.7656025,7.218714 3.5461421,7.162437 4.00954166,18.675659 z"
         sodipodi:nodetypes="sssssssss" />
      <path
         id="path5646"
         style="fill:#f1d5c0;fill-opacity:1;stroke:#000000;stroke-width:0.07990417;stroke-miterlimit:4;stroke-dasharray:none"
         d="m 1.8174001,117.92909 c -4.3759459,10.43974 -4.5462589,15.26537 -6.2956041,20.06905 -1.9913817,5.46831 1.477395,12.84609 -2.2865641,12.84609 -3.7639589,0 -0.417562,-4.64021 -5.3632539,-14.63378 -2.748587,-5.55396 -5.259738,-9.18584 -8.267249,-20.09876 -3.230934,-11.72362 -4.846525,-21.940165 -1.459919,-28.986055 3.274369,-6.812378 10.518729,-22.103087 14.2826884,-22.103087 0,0 12.8208719,10.968832 13.0710884,19.276019 0.2632738,8.740687 6.8193492,8.579296 -3.6811867,33.630523 z"
         sodipodi:nodetypes="sssssssss" />
      <path
         id="path7404"
         style="fill:#d8c1b1;fill-opacity:1;stroke:#000000;stroke-width:0.11033125;stroke-miterlimit:4;stroke-dasharray:none"
         d="m -6.9720911,109.57272 c -2.9909858,5.12628 -0.9411457,25.15194 -0.4637359,34.92635 -0.2244875,-10.9979 -2.0465057,-27.43069 -3.337899,-33.04904 -2.24737,-9.48417 -1.37908,-18.898205 0.486303,-24.209146 1.7277395,-4.919056 1.8317728,-12.844176 2.9207953,-12.844176 0,0 -0.905046,6.653906 0.1470438,13.206619 1.1406815,7.104487 2.7807688,2.020184 0.2474928,21.969393 z"
         sodipodi:nodetypes="cccsssc" />
    </g>
    <g
       id="g21503"
       transform="translate(-5.2502679,14.94307)">
      <ellipse
         style="fill:#ffffff;fill-opacity:1;stroke:#000000;stroke-width:0.08704792;stroke-miterlimit:4;stroke-dasharray:none;stroke-opacity:1"
         id="path19921"
         cx="37.410572"
         cy="12.565385"
         rx="11.812837"
         ry="20.665722" />
      <ellipse
         style="fill:#f4d7d7;fill-opacity:1;stroke:#000000;stroke-width:0.139711;stroke-miterlimit:4;stroke-dasharray:none;stroke-opacity:1"
         id="ellipse20003"
         cx="37.55336"
         cy="19.562017"
         rx="6.3501096"
         ry="6.0645328" />
      <path
         id="ellipse20175"
         style="fill:#d8c1b1;fill-opacity:1;stroke:#000000;stroke-width:1.32947;stroke-miterlimit:4;stroke-dasharray:none;stroke-opacity:1"
         d="M 141.39453,-30.615234 A 44.646942,78.106665 0 0 0 96.982422,39.935547 h 88.847658 a 44.646942,78.106665 0 0 0 -44.43555,-70.550781 z"
         transform="scale(0.26458333)" />
      <g
         id="g20157"
         transform="matrix(2.0298128,0,0,0.99757749,-39.741808,14.826426)">
        <path
           style="fill:none;stroke:#000000;stroke-width:0.225231px;stroke-linecap:butt;stroke-linejoin:miter;stroke-opacity:1"
           d="m 31.69904,-16.90735 c 1.355328,4.158487 1.142306,8.3928143 1.142306,12.6236946"
           id="path20056" />
        <path
           style="fill:none;stroke:#000000;stroke-width:0.225231px;stroke-linecap:butt;stroke-linejoin:miter;stroke-opacity:1"
           d="m 33.566924,-17.311217 c 1.355328,4.158487 1.142306,8.3928145 1.142306,12.6236948"
           id="path20138" />
        <path
           style="fill:none;stroke:#000000;stroke-width:0.225231px;stroke-linecap:butt;stroke-linejoin:miter;stroke-opacity:1"
           d="m 35.232874,-17.3617 c 1.355328,4.158487 1.142306,8.3928142 1.142306,12.6236945"
           id="path20140" />
        <path
           style="fill:none;stroke:#000000;stroke-width:0.225231px;stroke-linecap:butt;stroke-linejoin:miter;stroke-opacity:1"
           d="m 36.848341,-17.21025 c 1.355328,4.158487 1.142306,8.3928142 1.142306,12.6236945"
           id="path20142" />
        <path
           style="fill:none;stroke:#000000;stroke-width:0.225231px;stroke-linecap:butt;stroke-linejoin:miter;stroke-opacity:1"
           d="m 38.413325,-16.654933 c 1.355328,4.158487 1.142306,8.392814 1.142306,12.6236943"
           id="path20144" />
        <path
           style="fill:none;stroke:#000000;stroke-width:0.225231px;stroke-linecap:butt;stroke-linejoin:miter;stroke-opacity:1"
           d="m 42.300543,-14.635599 c 1.355328,4.158487 1.142306,8.3928138 1.142306,12.6236941"
           id="path20146" />
        <path
           style="fill:none;stroke:#000000;stroke-width:0.225231px;stroke-linecap:butt;stroke-linejoin:miter;stroke-opacity:1"
           d="m 40.382175,-15.695749 c 1.355328,4.158487 1.142306,8.3928136 1.142306,12.6236939"
           id="path20148" />
      </g>
      <ellipse
         style="fill:#000000;fill-opacity:1;stroke:#000000;stroke-width:0.0506384;stroke-miterlimit:4;stroke-dasharray:none;stroke-opacity:1"
         id="ellipse21391"
         cx="37.55336"
         cy="19.562017"
         rx="2.396569"
         ry="2.1109922" />
    </g>
    <g
       id="g21529"
       transform="matrix(-1,0,0,1,107.62402,14.94307)">
      <ellipse
         style="fill:#ffffff;fill-opacity:1;stroke:#000000;stroke-width:0.08704792;stroke-miterlimit:4;stroke-dasharray:none;stroke-opacity:1"
         id="ellipse21505"
         cx="37.410572"
         cy="12.565385"
         rx="11.812837"
         ry="20.665722" />
      <ellipse
         style="fill:#f4d7d7;fill-opacity:1;stroke:#000000;stroke-width:0.139711;stroke-miterlimit:4;stroke-dasharray:none;stroke-opacity:1"
         id="ellipse21507"
         cx="37.55336"
         cy="19.562017"
         rx="6.3501096"
         ry="6.0645328" />
      <path
         id="path21509"
         style="fill:#d8c1b1;fill-opacity:1;stroke:#000000;stroke-width:1.32947;stroke-miterlimit:4;stroke-dasharray:none;stroke-opacity:1"
         d="M 141.39453,-30.615234 A 44.646942,78.106665 0 0 0 96.982422,39.935547 h 88.847658 a 44.646942,78.106665 0 0 0 -44.43555,-70.550781 z"
         transform="scale(0.26458333)" />
      <g
         id="g21525"
         transform="matrix(2.0298128,0,0,0.99757749,-39.741808,14.826426)">
        <path
           style="fill:none;stroke:#000000;stroke-width:0.225231px;stroke-linecap:butt;stroke-linejoin:miter;stroke-opacity:1"
           d="m 31.69904,-16.90735 c 1.355328,4.158487 1.142306,8.3928143 1.142306,12.6236946"
           id="path21511" />
        <path
           style="fill:none;stroke:#000000;stroke-width:0.225231px;stroke-linecap:butt;stroke-linejoin:miter;stroke-opacity:1"
           d="m 33.566924,-17.311217 c 1.355328,4.158487 1.142306,8.3928145 1.142306,12.6236948"
           id="path21513" />
        <path
           style="fill:none;stroke:#000000;stroke-width:0.225231px;stroke-linecap:butt;stroke-linejoin:miter;stroke-opacity:1"
           d="m 35.232874,-17.3617 c 1.355328,4.158487 1.142306,8.3928142 1.142306,12.6236945"
           id="path21515" />
        <path
           style="fill:none;stroke:#000000;stroke-width:0.225231px;stroke-linecap:butt;stroke-linejoin:miter;stroke-opacity:1"
           d="m 36.848341,-17.21025 c 1.355328,4.158487 1.142306,8.3928142 1.142306,12.6236945"
           id="path21517" />
        <path
           style="fill:none;stroke:#000000;stroke-width:0.225231px;stroke-linecap:butt;stroke-linejoin:miter;stroke-opacity:1"
           d="m 38.413325,-16.654933 c 1.355328,4.158487 1.142306,8.392814 1.142306,12.6236943"
           id="path21519" />
        <path
           style="fill:none;stroke:#000000;stroke-width:0.225231px;stroke-linecap:butt;stroke-linejoin:miter;stroke-opacity:1"
           d="m 42.300543,-14.635599 c 1.355328,4.158487 1.142306,8.3928138 1.142306,12.6236941"
           id="path21521" />
        <path
           style="fill:none;stroke:#000000;stroke-width:0.225231px;stroke-linecap:butt;stroke-linejoin:miter;stroke-opacity:1"
           d="m 40.382175,-15.695749 c 1.355328,4.158487 1.142306,8.3928136 1.142306,12.6236939"
           id="path21523" />
      </g>
      <ellipse
         style="fill:#000000;fill-opacity:1;stroke:#000000;stroke-width:0.0506384;stroke-miterlimit:4;stroke-dasharray:none;stroke-opacity:1"
         id="ellipse21527"
         cx="37.55336"
         cy="19.562017"
         rx="2.396569"
         ry="2.1109922" />
    </g>
    <path
       id="path21577"
       style="fill:#d8c1b1;fill-opacity:1;stroke:#000000;stroke-width:0.848929;stroke-miterlimit:4;stroke-dasharray:none"
       d="m -143.3881,314.28879 c -4.54676,7.74623 -1.43069,38.00664 -0.70495,52.77657 -0.34126,-16.61873 -3.11101,-41.45001 -5.07412,-49.9398 -3.41635,-14.33135 -2.09642,-28.55673 0.73925,-36.582 2.62643,-7.43309 2.78458,-19.4086 4.44006,-19.4086 0,0 -1.37581,10.0546 0.22353,19.95628 1.73401,10.73546 4.2272,3.05267 0.37623,33.19755 z"
       sodipodi:nodetypes="cccsssc" />
    <g
       id="g49549"
       transform="translate(-85.673079,-202.18846)"
       inkscape:export-filename="E:\PROJECTS\DICKY\dist\assets\graphics\backgrounds\mm_bg000.png"
       inkscape:export-xdpi="96"
       inkscape:export-ydpi="96">
      <rect
         style="fill:#ecd0c1;fill-opacity:1;stroke:none;stroke-width:0.400876;stroke-miterlimit:4;stroke-dasharray:none;stroke-opacity:1"
         id="rect19713"
         width="211.66667"
         height="211.66667"
         x="-172.12027"
         y="201.84296"
         inkscape:export-filename="E:\PROJECTS\DICKY\dist\assets\graphics\backgrounds\mm_bg000.png"
         inkscape:export-xdpi="96"
         inkscape:export-ydpi="96" />
      <g
         id="g49246"
         transform="matrix(0.85094736,0,0,1.279502,-10.300972,-85.566288)">
        <ellipse
           style="fill:#e5beaa;fill-opacity:1;stroke:#e8c3b1;stroke-width:0.172393;stroke-miterlimit:4;stroke-dasharray:none;stroke-opacity:1;filter:url(#filter38583)"
           id="path38501"
           cx="-69.109627"
           cy="306.13843"
           rx="76.011772"
           ry="78.867523"
           transform="matrix(1.0206124,0,0,0.81709169,1.4245123,55.995264)" />
        <ellipse
           style="fill:#deac92;fill-opacity:1;stroke:#e8c3b1;stroke-width:0.172556;stroke-miterlimit:4;stroke-dasharray:none;stroke-opacity:1;filter:url(#filter38583)"
           id="ellipse39951"
           cx="-69.109627"
           cy="306.13843"
           rx="76.011772"
           ry="78.867523"
           transform="matrix(0.57715827,0,0,0.66427672,-29.222435,102.7778)" />
      </g>
    </g>
    <g
       id="g49234"
       inkscape:export-filename="E:\PROJECTS\DICKY\dist\assets\graphics\backgrounds\backgroundDeco\vagina_000.png"
       inkscape:export-xdpi="96"
       inkscape:export-ydpi="96"
       transform="translate(-145.07308,-167.91923)">
      <path
         id="path21569"
         style="fill:#e3b9a4;fill-opacity:1;stroke:#e1b39c;stroke-width:0.12482;stroke-miterlimit:4;stroke-dasharray:none;stroke-opacity:1"
         d="m -65.613566,409.28623 c -0.363477,-0.11451 -2.867244,10.74945 -6.402539,20.56091 -3.969455,11.01637 -10.957527,24.18032 -12.965984,40.16022 -2.085405,16.5921 8.087245,26.15653 12.363908,36.1759 4.276663,10.01937 8.218378,14.35613 8.268448,19.99597 0.02987,3.36523 3.594956,-12.33237 6.814748,-23.02205 3.327758,-11.04814 12.474527,-17.63338 11.605607,-34.55724 -0.825344,-16.07518 -7.32019,-27.797 -11.351086,-38.46149 -4.030895,-10.66449 -8.595494,-15.31461 -8.297995,-20.29094 0.02197,-0.36749 0.0095,-0.54722 -0.03511,-0.56128 z m 0.822662,47.35292 c 0,0 -0.779044,5.4659 0.126383,10.84862 0.98167,5.83597 2.393114,1.65943 0.212978,18.04666 -1.073803,1.75669 -1.391195,5.64565 -1.368273,10.16233 h -0.509921 c -0.462032,-3.68955 -0.96188,-6.82795 -1.393434,-8.62008 -1.934085,-7.79076 -1.186702,-15.52402 0.418644,-19.88669 1.486892,-4.04074 1.576411,-10.55084 2.513623,-10.55084 z" />
      <path
         id="path21571"
         style="fill:#ebc8b7;fill-opacity:1;stroke:#ebcbbb;stroke-width:0.149229;stroke-miterlimit:4;stroke-dasharray:none;stroke-opacity:1"
         d="m -65.375426,423.50393 c -0.022,-0.0266 -0.05459,0.19794 -0.07431,0.70062 -0.02331,0.59447 -0.03222,1.0793 -0.02486,1.51417 0.141341,-1.38117 0.136806,-2.1692 0.09918,-2.21479 z m -0.09918,2.21479 c -0.21681,2.1186 -0.779912,5.64315 -2.116335,10.10473 -2.58043,8.61465 -5.85917,10.49755 -8.262304,22.6622 -2.578151,13.05058 1.530323,31.31066 5.243734,40.24392 3.112997,7.48887 6.453936,14.14339 6.652674,18.64279 -0.0021,-2.483 0.228412,-12.25204 2.717824,-18.71161 3.216664,-8.34665 9.543193,-27.37036 7.304482,-40.71166 -2.152433,-12.82715 -5.521333,-13.43069 -8.400095,-21.89304 -2.457308,-7.22344 -3.098175,-7.86738 -3.13998,-10.33733 z m 1.517769,91.65364 c 6.22e-4,0.64843 0.01376,0.91872 0.01053,0.36265 -7.36e-4,-0.11897 -0.0052,-0.24046 -0.01053,-0.36265 z m -0.834071,-60.73321 c 0,0 -0.779044,5.4659 0.126383,10.84862 0.98167,5.83597 2.393114,1.65943 0.212978,18.04666 -1.073803,1.75669 -1.391195,5.64565 -1.368273,10.16233 h -0.509921 c -0.462032,-3.68955 -0.96188,-6.82795 -1.393434,-8.62008 -1.934085,-7.79076 -1.186702,-15.52402 0.418644,-19.88669 1.486892,-4.04074 1.576411,-10.55084 2.513623,-10.55084 z" />
      <path
         id="path21573"
         style="fill:#e1c2a8;fill-opacity:1;stroke:#ecccbd;stroke-width:0.158081;stroke-opacity:1"
         d="m -65.227688,437.64831 c -0.01161,-0.0186 -0.02879,0.13881 -0.0392,0.49105 -0.0076,0.25863 -9.05e-4,0.48252 0.01258,0.69332 0.04687,-0.73385 0.04376,-1.1568 0.02662,-1.18437 z m -0.02662,1.18437 c -0.09078,1.42135 -0.374229,4.04208 -1.142716,7.44806 -1.362009,6.03653 -3.09267,7.3561 -4.361098,15.88019 -1.360807,9.14491 0.0703,22.17478 2.030323,28.43457 1.68773,5.39017 2.274519,9.3433 2.288356,12.49679 0.0083,1.88165 2.229456,-6.25003 3.886577,-11.95854 1.697827,-5.84874 3.76053,-19.93989 3.363783,-29.34869 -0.398801,-9.4575 -1.930903,-9.41131 -3.45038,-15.3411 -1.383607,-5.39957 -2.483131,-5.554 -2.614845,-7.61128 z m 0.463405,17.80647 c 0,0 -0.779044,5.4659 0.126383,10.84862 0.98167,5.83597 2.393114,1.65943 0.212979,18.04666 -1.073803,1.75669 -1.391195,5.64565 -1.368273,10.16233 h -0.509922 c -0.462031,-3.68955 -0.96188,-6.82795 -1.393434,-8.62008 -1.934085,-7.79076 -1.186702,-15.52402 0.418645,-19.88669 1.486891,-4.04074 1.576411,-10.55084 2.513622,-10.55084 z" />
      <path
         id="path21575"
         style="fill:#e3baa6;fill-opacity:1;stroke:#d99f81;stroke-width:0.11;stroke-miterlimit:4;stroke-dasharray:none;stroke-opacity:1"
         d="m -64.968192,448.93882 c -3.23926,0 -9.473729,12.56049 -12.291647,18.15651 -2.91451,5.78783 -1.524313,14.18024 1.256226,23.81059 2.588261,8.9644 4.749477,11.94774 7.114908,16.51002 4.256258,8.20919 1.376361,12.02091 4.615621,12.02091 3.239258,0 0.253934,-6.0606 1.967717,-10.55253 1.505484,-3.94598 1.65216,-7.90988 5.418095,-16.48558 9.036751,-20.57827 3.394639,-20.44578 3.168065,-27.62579 -0.215335,-6.82392 -11.248985,-15.83413 -11.248985,-15.83413 z m 0.177288,7.70033 c 0,0 -0.779044,5.4659 0.126383,10.84862 0.98167,5.83597 2.393114,1.65943 0.212978,18.04666 -1.073803,1.75669 -1.391195,5.64565 -1.368273,10.16233 h -0.509921 c -0.462032,-3.68955 -0.96188,-6.82795 -1.393434,-8.62008 -1.934085,-7.79076 -1.186702,-15.52402 0.418644,-19.88669 1.486892,-4.04074 1.576411,-10.55084 2.513623,-10.55084 z" />
      <path
         id="path24486"
         style="fill:#d8c1b1;fill-opacity:1;stroke:#deac92;stroke-width:0.470949;stroke-miterlimit:4;stroke-dasharray:none;stroke-opacity:1"
         d="m -65.819524,494.81466 c -1.43e-4,0.0271 -4.86e-4,0.0543 -5.66e-4,0.0815 1.19e-4,-0.0272 4.58e-4,-0.0543 5.66e-4,-0.0815 z m -0.510213,0.8821 c 0.261467,2.08794 0.509838,4.34965 0.727288,6.65335 -0.119571,-2.25389 -0.206845,-4.52243 -0.21766,-6.65335 z m 0.727288,6.65335 c 0.23452,4.42062 0.593265,8.77511 0.751863,11.87452 -0.07572,-3.54092 -0.364009,-7.76564 -0.751863,-11.87452 z" />
    </g>
    <g
       id="g963"
       transform="translate(186.19616,163.35001)"
       inkscape:export-filename="E:\PROJECTS\DICKY\dist\assets\graphics\backgrounds\mm_bg000.png"
       inkscape:export-xdpi="96"
       inkscape:export-ydpi="96">
      <rect
         style="fill:#ecd0c1;fill-opacity:1;stroke:none;stroke-width:0.400876;stroke-miterlimit:4;stroke-dasharray:none;stroke-opacity:1"
         id="rect955"
         width="211.66667"
         height="211.66667"
         x="-172.12027"
         y="201.84296"
         inkscape:export-filename="E:\PROJECTS\DICKY\dist\assets\graphics\backgrounds\mm_bg000.png"
         inkscape:export-xdpi="96"
         inkscape:export-ydpi="96" />
      <g
         id="g961"
         transform="matrix(0.85094736,0,0,1.279502,-10.300972,-85.566288)">
        <ellipse
           style="fill:#e5beaa;fill-opacity:1;stroke:#e8c3b1;stroke-width:0.172393;stroke-miterlimit:4;stroke-dasharray:none;stroke-opacity:1;filter:url(#filter38583)"
           id="ellipse957"
           cx="-69.109627"
           cy="306.13843"
           rx="76.011772"
           ry="78.867523"
           transform="matrix(1.0206124,0,0,0.81709169,1.4245123,55.995264)" />
        <ellipse
           style="fill:#deac92;fill-opacity:1;stroke:#e8c3b1;stroke-width:0.172556;stroke-miterlimit:4;stroke-dasharray:none;stroke-opacity:1;filter:url(#filter38583)"
           id="ellipse959"
           cx="-69.109627"
           cy="306.13843"
           rx="76.011772"
           ry="78.867523"
           transform="matrix(0.57715827,0,0,0.66427672,-29.222435,102.7778)" />
      </g>
    </g>
    <g
       id="g975"
       inkscape:export-filename="E:\PROJECTS\DICKY\dist\assets\graphics\backgrounds\backgroundDeco\vagina_000.png"
       inkscape:export-xdpi="96"
       inkscape:export-ydpi="96"
       transform="translate(186.19616,2.2846186)">
      <path
         id="path965"
         style="fill:#e3b9a4;fill-opacity:1;stroke:#e1b39c;stroke-width:0.12482;stroke-miterlimit:4;stroke-dasharray:none;stroke-opacity:1"
         d="m -65.613566,409.28623 c -0.363477,-0.11451 -2.867244,10.74945 -6.402539,20.56091 -3.969455,11.01637 -10.957527,24.18032 -12.965984,40.16022 -2.085405,16.5921 8.087245,26.15653 12.363908,36.1759 4.276663,10.01937 8.218378,14.35613 8.268448,19.99597 0.02987,3.36523 3.594956,-12.33237 6.814748,-23.02205 3.327758,-11.04814 12.474527,-17.63338 11.605607,-34.55724 -0.825344,-16.07518 -7.32019,-27.797 -11.351086,-38.46149 -4.030895,-10.66449 -8.595494,-15.31461 -8.297995,-20.29094 0.02197,-0.36749 0.0095,-0.54722 -0.03511,-0.56128 z m 0.822662,47.35292 c 0,0 -0.779044,5.4659 0.126383,10.84862 0.98167,5.83597 2.393114,1.65943 0.212978,18.04666 -1.073803,1.75669 -1.391195,5.64565 -1.368273,10.16233 h -0.509921 c -0.462032,-3.68955 -0.96188,-6.82795 -1.393434,-8.62008 -1.934085,-7.79076 -1.186702,-15.52402 0.418644,-19.88669 1.486892,-4.04074 1.576411,-10.55084 2.513623,-10.55084 z" />
      <path
         id="path967"
         style="fill:#ebc8b7;fill-opacity:1;stroke:#ebcbbb;stroke-width:0.149229;stroke-miterlimit:4;stroke-dasharray:none;stroke-opacity:1"
         d="m -65.375426,423.50393 c -0.022,-0.0266 -0.05459,0.19794 -0.07431,0.70062 -0.02331,0.59447 -0.03222,1.0793 -0.02486,1.51417 0.141341,-1.38117 0.136806,-2.1692 0.09918,-2.21479 z m -0.09918,2.21479 c -0.21681,2.1186 -0.779912,5.64315 -2.116335,10.10473 -2.58043,8.61465 -5.85917,10.49755 -8.262304,22.6622 -2.578151,13.05058 1.530323,31.31066 5.243734,40.24392 3.112997,7.48887 6.453936,14.14339 6.652674,18.64279 -0.0021,-2.483 0.228412,-12.25204 2.717824,-18.71161 3.216664,-8.34665 9.543193,-27.37036 7.304482,-40.71166 -2.152433,-12.82715 -5.521333,-13.43069 -8.400095,-21.89304 -2.457308,-7.22344 -3.098175,-7.86738 -3.13998,-10.33733 z m 1.517769,91.65364 c 6.22e-4,0.64843 0.01376,0.91872 0.01053,0.36265 -7.36e-4,-0.11897 -0.0052,-0.24046 -0.01053,-0.36265 z m -0.834071,-60.73321 c 0,0 -0.779044,5.4659 0.126383,10.84862 0.98167,5.83597 2.393114,1.65943 0.212978,18.04666 -1.073803,1.75669 -1.391195,5.64565 -1.368273,10.16233 h -0.509921 c -0.462032,-3.68955 -0.96188,-6.82795 -1.393434,-8.62008 -1.934085,-7.79076 -1.186702,-15.52402 0.418644,-19.88669 1.486892,-4.04074 1.576411,-10.55084 2.513623,-10.55084 z" />
      <path
         id="path969"
         style="fill:#e1c2a8;fill-opacity:1;stroke:#ecccbd;stroke-width:0.158081;stroke-opacity:1"
         d="m -65.227688,437.64831 c -0.01161,-0.0186 -0.02879,0.13881 -0.0392,0.49105 -0.0076,0.25863 -9.05e-4,0.48252 0.01258,0.69332 0.04687,-0.73385 0.04376,-1.1568 0.02662,-1.18437 z m -0.02662,1.18437 c -0.09078,1.42135 -0.374229,4.04208 -1.142716,7.44806 -1.362009,6.03653 -3.09267,7.3561 -4.361098,15.88019 -1.360807,9.14491 0.0703,22.17478 2.030323,28.43457 1.68773,5.39017 2.274519,9.3433 2.288356,12.49679 0.0083,1.88165 2.229456,-6.25003 3.886577,-11.95854 1.697827,-5.84874 3.76053,-19.93989 3.363783,-29.34869 -0.398801,-9.4575 -1.930903,-9.41131 -3.45038,-15.3411 -1.383607,-5.39957 -2.483131,-5.554 -2.614845,-7.61128 z m 0.463405,17.80647 c 0,0 -0.779044,5.4659 0.126383,10.84862 0.98167,5.83597 2.393114,1.65943 0.212979,18.04666 -1.073803,1.75669 -1.391195,5.64565 -1.368273,10.16233 h -0.509922 c -0.462031,-3.68955 -0.96188,-6.82795 -1.393434,-8.62008 -1.934085,-7.79076 -1.186702,-15.52402 0.418645,-19.88669 1.486891,-4.04074 1.576411,-10.55084 2.513622,-10.55084 z" />
      <path
         id="path971"
         style="fill:#e3baa6;fill-opacity:1;stroke:#d99f81;stroke-width:0.11;stroke-miterlimit:4;stroke-dasharray:none;stroke-opacity:1"
         d="m -64.968192,448.93882 c -3.23926,0 -9.473729,12.56049 -12.291647,18.15651 -2.91451,5.78783 -1.524313,14.18024 1.256226,23.81059 2.588261,8.9644 4.749477,11.94774 7.114908,16.51002 4.256258,8.20919 1.376361,12.02091 4.615621,12.02091 3.239258,0 0.253934,-6.0606 1.967717,-10.55253 1.505484,-3.94598 1.65216,-7.90988 5.418095,-16.48558 9.036751,-20.57827 3.394639,-20.44578 3.168065,-27.62579 -0.215335,-6.82392 -11.248985,-15.83413 -11.248985,-15.83413 z m 0.177288,7.70033 c 0,0 -0.779044,5.4659 0.126383,10.84862 0.98167,5.83597 2.393114,1.65943 0.212978,18.04666 -1.073803,1.75669 -1.391195,5.64565 -1.368273,10.16233 h -0.509921 c -0.462032,-3.68955 -0.96188,-6.82795 -1.393434,-8.62008 -1.934085,-7.79076 -1.186702,-15.52402 0.418644,-19.88669 1.486892,-4.04074 1.576411,-10.55084 2.513623,-10.55084 z" />
      <path
         id="path973"
         style="fill:#d8c1b1;fill-opacity:1;stroke:#deac92;stroke-width:0.470949;stroke-miterlimit:4;stroke-dasharray:none;stroke-opacity:1"
         d="m -65.819524,494.81466 c -1.43e-4,0.0271 -4.86e-4,0.0543 -5.66e-4,0.0815 1.19e-4,-0.0272 4.58e-4,-0.0543 5.66e-4,-0.0815 z m -0.510213,0.8821 c 0.261467,2.08794 0.509838,4.34965 0.727288,6.65335 -0.119571,-2.25389 -0.206845,-4.52243 -0.21766,-6.65335 z m 0.727288,6.65335 c 0.23452,4.42062 0.593265,8.77511 0.751863,11.87452 -0.07572,-3.54092 -0.364009,-7.76564 -0.751863,-11.87452 z" />
    </g>
    <path
       sodipodi:type="spiral"
       style="fill:#e9afaf;fill-rule:evenodd;stroke:#000000;stroke-width:0.245669;stroke-miterlimit:4;stroke-dasharray:none"
       id="path1197"
       sodipodi:cx="417.85901"
       sodipodi:cy="1755.0078"
       sodipodi:expansion="1"
       sodipodi:revolution="16"
       sodipodi:radius="45.647846"
       sodipodi:argument="-18.224447"
       sodipodi:t0="0"
       d="m 417.85901,1755.0078 c 0.34798,0.2511 -0.16683,0.593 -0.41738,0.5784 -0.679,-0.04 -0.92011,-0.8621 -0.73937,-1.4132 0.32331,-0.9856 1.52752,-1.2897 2.4089,-0.9003 1.29344,0.5714 1.66847,2.2013 1.06134,3.4046 -0.80922,1.6039 -2.87799,2.051 -4.4004,1.2224 -1.9158,-1.0428 -2.43546,-3.556 -1.38332,-5.3962 1.27427,-2.2286 4.23479,-2.821 6.3919,-1.5443 2.54209,1.5046 3.20729,4.9141 1.70531,7.3877 -1.7341,2.8559 -5.59362,3.594 -8.38342,1.8663 -3.16995,-1.9632 -3.98108,-6.2734 -2.02728,-9.3792 2.19186,-3.4842 6.95336,-4.3684 10.37492,-2.1883 3.79859,2.4203 4.75584,7.6335 2.34926,11.3707 -2.64859,4.1131 -8.3136,5.1434 -12.36643,2.5103 -4.42766,-2.8768 -5.53116,-8.9939 -2.67124,-13.3622 3.10475,-4.7423 9.67414,-5.919 14.35794,-2.8323 5.057,3.3327 6.30684,10.3545 2.99322,15.3537 -3.56054,5.3718 -11.03488,6.6948 -16.34945,3.1542 -5.68652,-3.7883 -7.08274,-11.7153 -3.3152,-17.3452 4.0161,-6.0013 12.39576,-7.4707 18.34096,-3.4762 6.31616,4.2439 7.8588,13.0763 3.63718,19.3368 -4.47149,6.631 -13.75673,8.2468 -20.33246,3.7981 -6.9459,-4.6991 -8.63499,-14.4372 -3.95917,-21.3282 4.92675,-7.2608 15.11778,-9.0231 22.32398,-4.1201 7.57569,5.1543 9.41125,15.7983 4.28114,23.3197 -5.38193,7.8906 -16.47888,9.7994 -24.31548,4.4421 -8.20554,-5.6095 -10.18759,-17.1594 -4.60313,-25.3112 5.83703,-8.5205 17.84002,-10.5758 26.30699,-4.7641 8.83543,6.0645 10.96398,18.5206 4.92511,27.3027 -6.29208,9.1504 -19.2012,11.3522 -28.2985,5.0861 -9.46534,-6.5196 -11.74041,-19.8818 -5.24709,-29.2942 6.74709,-9.7804 20.56241,-12.1287 30.29001,-5.4081 10.09529,6.9746 12.51687,21.243 5.56907,31.2857 -7.20206,10.4103 -21.92363,12.9052 -32.28152,5.7301 -10.72524,-7.4295 -13.29336,-22.6043 -5.89104,-33.2773 7.65699,-11.0402 23.28487,-13.6816 34.27302,-6.052 11.35523,7.8844 14.06988,23.9655 6.21303,35.2688 -8.11192,11.6702 -24.64614,14.4581 -36.26454,6.374 -11.98522,-8.3394 -14.84641,-25.3268 -6.535,-37.2603 8.56681,-12.3002 26.00741,-15.2347 38.25604,-6.696 12.61523,8.7943 15.62297,26.6881 6.85698,39.2518 -9.02169,12.9302 -27.36869,16.0112 -40.24755,7.018 -13.24524,-9.2492 -16.39953,-28.0494 -7.17896,-41.2433 9.47655,-13.5603 28.72999,-16.7879 42.23906,-7.34 13.87527,9.704 17.17611,29.4107 7.50094,43.2348 -9.9314,14.1903 -30.09129,17.5644 -44.23056,7.662 -14.50531,-10.1589 -17.95271,-30.772 -7.82293,-45.2264 10.38625,-14.8203 31.45261,-18.341 46.22208,-7.9839 15.13534,10.6137 18.7293,32.1333 8.1449,47.2179 -10.84108,15.4503 -32.81392,19.1176 -48.21358,8.3058 -15.7654,-11.0684 -19.50592,-33.4945 -8.46689,-49.2093 11.2959,-16.0804 34.17525,-19.8942 50.20509,-8.6279 16.39545,11.5233 20.28253,34.8559 8.78887,51.2009 -11.75071,16.7105 -35.53658,20.6708 -52.1966,8.9498 -17.02551,-11.9781 -21.05915,-36.2172 -9.11085,-53.1923 12.20552,-17.3406 36.89792,-21.4475 54.18811,-9.2719 17.65557,12.433 21.83578,37.5786 9.43283,55.1839 -12.66032,17.9706 -38.25925,22.2241 -56.17962,9.5938 -18.28563,-12.8877 -22.61241,-38.9399 -9.75481,-57.1753 13.11512,-18.6007 39.6206,-23.0008 58.17113,-9.9158 18.9157,13.3425 23.38905,40.3012 10.07679,59.1668 -13.56991,19.2308 -40.98194,23.7774 -60.16264,10.2378 -19.54577,-13.7973 -24.16569,-41.6626 -10.39876,-61.1584 14.02469,-19.8608 42.34328,-24.554 62.15414,-10.5597 20.17585,14.2521 24.94234,43.0239 10.72075,63.1499"
       transform="matrix(0.26458333,0,0,0.26458333,127.49448,9.449979)"
       inkscape:export-filename="E:\PROJECTS\DICKY\dist\assets\graphics\backgrounds\backgroundDeco\spinner_000.png"
       inkscape:export-xdpi="96"
       inkscape:export-ydpi="96" />
    <path
       sodipodi:type="spiral"
       style="fill:#f4d7d7;fill-rule:evenodd;stroke:#000000;stroke-width:0.176895;stroke-miterlimit:4;stroke-dasharray:none"
       id="path1245"
       sodipodi:cx="417.85901"
       sodipodi:cy="1755.0078"
       sodipodi:expansion="1"
       sodipodi:revolution="16"
       sodipodi:radius="45.647846"
       sodipodi:argument="-18.224447"
       sodipodi:t0="0"
       d="m 417.85901,1755.0078 c 0.34798,0.2511 -0.16683,0.593 -0.41738,0.5784 -0.679,-0.04 -0.92011,-0.8621 -0.73937,-1.4132 0.32331,-0.9856 1.52752,-1.2897 2.4089,-0.9003 1.29344,0.5714 1.66847,2.2013 1.06134,3.4046 -0.80922,1.6039 -2.87799,2.051 -4.4004,1.2224 -1.9158,-1.0428 -2.43546,-3.556 -1.38332,-5.3962 1.27427,-2.2286 4.23479,-2.821 6.3919,-1.5443 2.54209,1.5046 3.20729,4.9141 1.70531,7.3877 -1.7341,2.8559 -5.59362,3.594 -8.38342,1.8663 -3.16995,-1.9632 -3.98108,-6.2734 -2.02728,-9.3792 2.19186,-3.4842 6.95336,-4.3684 10.37492,-2.1883 3.79859,2.4203 4.75584,7.6335 2.34926,11.3707 -2.64859,4.1131 -8.3136,5.1434 -12.36643,2.5103 -4.42766,-2.8768 -5.53116,-8.9939 -2.67124,-13.3622 3.10475,-4.7423 9.67414,-5.919 14.35794,-2.8323 5.057,3.3327 6.30684,10.3545 2.99322,15.3537 -3.56054,5.3718 -11.03488,6.6948 -16.34945,3.1542 -5.68652,-3.7883 -7.08274,-11.7153 -3.3152,-17.3452 4.0161,-6.0013 12.39576,-7.4707 18.34096,-3.4762 6.31616,4.2439 7.8588,13.0763 3.63718,19.3368 -4.47149,6.631 -13.75673,8.2468 -20.33246,3.7981 -6.9459,-4.6991 -8.63499,-14.4372 -3.95917,-21.3282 4.92675,-7.2608 15.11778,-9.0231 22.32398,-4.1201 7.57569,5.1543 9.41125,15.7983 4.28114,23.3197 -5.38193,7.8906 -16.47888,9.7994 -24.31548,4.4421 -8.20554,-5.6095 -10.18759,-17.1594 -4.60313,-25.3112 5.83703,-8.5205 17.84002,-10.5758 26.30699,-4.7641 8.83543,6.0645 10.96398,18.5206 4.92511,27.3027 -6.29208,9.1504 -19.2012,11.3522 -28.2985,5.0861 -9.46534,-6.5196 -11.74041,-19.8818 -5.24709,-29.2942 6.74709,-9.7804 20.56241,-12.1287 30.29001,-5.4081 10.09529,6.9746 12.51687,21.243 5.56907,31.2857 -7.20206,10.4103 -21.92363,12.9052 -32.28152,5.7301 -10.72524,-7.4295 -13.29336,-22.6043 -5.89104,-33.2773 7.65699,-11.0402 23.28487,-13.6816 34.27302,-6.052 11.35523,7.8844 14.06988,23.9655 6.21303,35.2688 -8.11192,11.6702 -24.64614,14.4581 -36.26454,6.374 -11.98522,-8.3394 -14.84641,-25.3268 -6.535,-37.2603 8.56681,-12.3002 26.00741,-15.2347 38.25604,-6.696 12.61523,8.7943 15.62297,26.6881 6.85698,39.2518 -9.02169,12.9302 -27.36869,16.0112 -40.24755,7.018 -13.24524,-9.2492 -16.39953,-28.0494 -7.17896,-41.2433 9.47655,-13.5603 28.72999,-16.7879 42.23906,-7.34 13.87527,9.704 17.17611,29.4107 7.50094,43.2348 -9.9314,14.1903 -30.09129,17.5644 -44.23056,7.662 -14.50531,-10.1589 -17.95271,-30.772 -7.82293,-45.2264 10.38625,-14.8203 31.45261,-18.341 46.22208,-7.9839 15.13534,10.6137 18.7293,32.1333 8.1449,47.2179 -10.84108,15.4503 -32.81392,19.1176 -48.21358,8.3058 -15.7654,-11.0684 -19.50592,-33.4945 -8.46689,-49.2093 11.2959,-16.0804 34.17525,-19.8942 50.20509,-8.6279 16.39545,11.5233 20.28253,34.8559 8.78887,51.2009 -11.75071,16.7105 -35.53658,20.6708 -52.1966,8.9498 -17.02551,-11.9781 -21.05915,-36.2172 -9.11085,-53.1923 12.20552,-17.3406 36.89792,-21.4475 54.18811,-9.2719 17.65557,12.433 21.83578,37.5786 9.43283,55.1839 -12.66032,17.9706 -38.25925,22.2241 -56.17962,9.5938 -18.28563,-12.8877 -22.61241,-38.9399 -9.75481,-57.1753 13.11512,-18.6007 39.6206,-23.0008 58.17113,-9.9158 18.9157,13.3425 23.38905,40.3012 10.07679,59.1668 -13.56991,19.2308 -40.98194,23.7774 -60.16264,10.2378 -19.54577,-13.7973 -24.16569,-41.6626 -10.39876,-61.1584 14.02469,-19.8608 42.34328,-24.554 62.15414,-10.5597 20.17585,14.2521 24.94234,43.0239 10.72075,63.1499"
       transform="matrix(-0.24440187,0,0,0.24176815,340.33412,74.179021)"
       inkscape:export-filename="E:\PROJECTS\DICKY\dist\assets\graphics\backgrounds\backgroundDeco\spinner_001.png"
       inkscape:export-xdpi="96"
       inkscape:export-ydpi="96" />
    <path
       id="path5188"
       style="opacity:1;fill:url(#linearGradient5190);fill-opacity:1;stroke:none;stroke-width:0.0430001"
       d="m 85.794066,536.059 -42.17022,-19.02579 c 0,0 -3.62681,4.11055 -2.81864,6.24744 0.6819,1.80301 4.35478,0.6824 5.27128,2.37823 0.96211,1.78022 -2.82571,5.25433 -0.94333,5.99698 2.49393,0.98393 1.92782,-7.37325 4.51179,-6.65841 3.54187,0.97983 -3.03331,10.56087 0.61434,11.00757 1.80922,0.22156 0.0268,-4.32723 1.61318,-5.22482 1.14259,-0.64648 2.88273,0.027 3.82406,0.94204 1.02088,0.99238 -0.18388,3.58936 1.13862,4.11662 1.82731,0.72854 3.1408,-3.49814 5.05517,-3.04531 1.26216,0.29855 1.78219,2.02595 2.0802,3.28824 0.50751,2.14967 -2.75313,5.87611 -0.66396,6.59296 2.22679,0.76408 1.61203,-5.00846 3.7559,-5.98123 1.65077,-0.74904 3.8103,-0.0666 5.37041,0.85647 1.79575,1.06253 3.613,2.86945 3.83973,4.94364 0.34399,3.14696 -6.55875,6.62837 -4.06769,8.58191 3.64301,2.85692 7.94797,-5.09941 10.77052,-8.7691 1.39287,-1.81091 2.81864,-6.24744 2.81864,-6.24744 z"
       sodipodi:nodetypes="ccaaaaaaaaaaaaaaaac" />
    <g
       aria-label="Play"
       id="text6553"
       style="font-size:10.5833px;line-height:1.25;fill:url(#linearGradient4123);fill-opacity:1;stroke-width:0.264583"
       transform="matrix(2.1158646,0,0,1.7470544,-28.955893,-392.6999)">
      <path
         d="m 43.524455,476.40562 q -0.211666,0 -0.349249,-0.0847 -0.127,-0.0952 -0.211666,-0.21166 -0.201083,-0.29634 -0.07408,-1.16417 0.05292,-0.42333 0.07408,-0.55033 0.02117,-0.127 0.126999,-0.35983 0.137583,-0.30692 0.179917,-0.56091 0.04233,-0.26459 0.07408,-1.02658 0.0635,-1.59808 0.359832,-3.07974 0.158749,-0.79375 0.179916,-1.16417 0.02117,-0.381 0.09525,-0.45508 0.07408,-0.0741 0.07408,-0.127 0,-0.0635 0.126999,-0.20108 0.137583,-0.14817 0.243416,-0.20108 0.127,-0.0635 0.402166,-0.0317 0.285749,0.0212 0.719664,0.0529 0.433915,0.0317 0.645581,0.10583 0.211666,0.0635 0.465665,0.23284 0.465666,0.32808 0.698498,0.635 0.243416,0.30691 0.359832,0.69849 0.03175,0.13759 0.04233,0.58208 0.01058,0.43392 -0.02117,0.889 -0.02117,0.4445 -0.0635,0.59267 -0.0635,0.20108 -0.137583,0.33866 -0.0635,0.127 -0.169333,0.23283 -0.105833,0.10584 -0.275165,0.22225 -0.285749,0.1905 -0.518582,0.49742 -0.15875,0.21167 -0.338666,0.37041 -0.169332,0.15875 -0.243415,0.15875 -0.03175,0 -0.433916,0.24342 -0.402165,0.23283 -0.709081,0.29633 -0.264582,0.0529 -0.582081,0.0635 -0.317499,0 -0.349249,-0.0423 -0.02117,-0.0423 0.01058,-0.0423 0.04233,0 0.444499,-0.0423 0.698497,-0.0741 1.142996,-0.37041 0.222249,-0.13759 0.560915,-0.49742 0.338665,-0.37041 0.455082,-0.58208 l 0.08467,-0.16933 -0.08467,-0.33867 q -0.137583,-0.49741 -0.04233,-1.12183 0.01058,-0.11641 0.01058,-0.17991 0.01058,-0.0635 0,-0.13759 0,-0.0847 -0.02117,-0.14816 -0.01058,-0.0635 -0.05292,-0.20109 -0.105833,-0.34924 -0.169333,-0.44449 -0.05292,-0.0952 -0.328082,-0.26459 -0.529165,-0.34925 -1.100663,-0.3175 -0.28575,0.0212 -0.455082,-0.0635 -0.15875,-0.0952 -0.211666,-0.19049 -0.15875,-0.23284 -0.201083,0.0423 -0.02117,0.0741 -0.02117,0.1905 0,0.1905 -0.137583,1.17474 -0.09525,0.65617 -0.126999,0.94192 -0.02117,0.28575 -0.01058,0.79375 0.01058,1.25941 0.09525,2.04257 0.02117,0.17992 0.15875,0.5715 0.137583,0.39158 0.137583,0.51858 0,0.127 0.0635,0.51858 0.127,0.8255 -0.03175,1.05833 -0.211666,0.30692 -0.560915,0.30692 z"
         style="font-family:Droph;-inkscape-font-specification:Droph;fill:url(#linearGradient4418);fill-opacity:1"
         id="path4071" />
      <path
         d="m 49.250015,476.37387 c -0.113074,-0.17701 -0.331611,-0.14464 -0.550332,-0.30692 -0.211666,-0.16933 -0.359832,-0.32103 -0.444498,-0.45508 -0.04233,-0.0706 -0.09172,-0.19402 -0.148167,-0.37041 -0.04939,-0.18345 -0.08114,-0.35278 -0.09525,-0.508 -0.02117,-0.16933 0.05907,4.64015 -1.353805,4.2146 -1.857101,-0.55935 1.547829,-5.17062 1.576051,-5.60101 0.02822,-0.43039 0.05997,-0.76553 0.09525,-1.00542 0.04939,-0.29633 0.102303,-1.03716 0.158749,-2.22249 0.0071,-0.1905 0.02822,-0.30692 0.0635,-0.34925 0.02117,-0.0282 0.03881,-0.0423 0.05292,-0.0423 0.01411,0 0.03528,0.0141 0.0635,0.0423 0.04939,0.0423 0.08114,0.11289 0.09525,0.21167 0.01411,0.0917 0.02822,0.30338 0.04233,0.63499 0.04233,0.87489 0.09525,1.524 0.15875,1.94733 0.04233,0.254 0.0635,0.47978 0.0635,0.67733 0,0.45861 0.05644,0.79022 0.169333,0.99483 0.07055,0.11289 0.105833,0.19051 0.105833,0.23284 0,0.0635 0.04586,0.1446 0.137583,0.24341 0.09878,0.0988 0.194027,0.16934 0.285749,0.21167 0.324555,0.15522 0.486832,0.39511 0.486832,0.71966 0,0.22578 -0.08467,0.41275 -0.253999,0.56092 -0.211666,0.1905 1.681625,5.85422 -0.280716,5.88087 -1.909017,0.0259 0.599423,-4.1026 -0.428363,-5.71154 z"
         style="font-family:Droph;-inkscape-font-specification:Droph;fill:url(#linearGradient4420);fill-opacity:1"
         id="path4073"
         sodipodi:nodetypes="accccascccsccccscsccscaa" />
      <path
         d="m 52.393243,472.75438 q 0.698497,0.0106 1.142996,0.28575 0.148166,0.0953 0.370416,0.0953 0.656164,0 0.719664,0.65616 0.02117,0.21167 0.137583,0.29634 0.158749,0.11641 0.201083,0.28575 0.05292,0.15875 0.08467,0.62441 0.02117,0.5715 0.05292,0.8255 0.01058,0.17991 -0.01058,0.23283 -0.01058,0.0529 -0.126999,0.17992 -0.105833,0.10583 -0.169333,0.13758 -0.05292,0.0317 -0.201083,0.0423 -0.211666,0.0106 -0.275166,-0.0106 -0.05292,-0.0317 -0.190499,-0.14817 -0.1905,-0.1905 -0.317499,-0.84666 -0.04233,-0.23283 -0.0635,-0.32808 -0.04233,-0.15875 -0.328082,0.0317 -0.0635,0.0423 -0.15875,0.11641 -0.86783,0.64558 -1.396995,0.77258 -0.518582,0.11642 -0.910164,-0.24341 -0.370416,-0.32808 -0.444499,-0.85725 -0.04233,-0.28575 0.01058,-0.52916 0.04233,-0.24342 0.201082,-0.48684 0.148167,-0.254 0.433916,-0.57149 0.306915,-0.33867 0.539748,-0.4445 0.158749,-0.0847 0.264582,-0.0952 0.105833,-0.0212 0.433916,-0.0212 z m 0.158749,0.254 q -0.169333,0 -0.275166,0.0212 -0.232832,0.0635 -0.444498,0.29633 -0.211666,0.23283 -0.243416,0.46566 -0.01058,0.127 0.01058,0.37042 0.03175,0.23283 0.07408,0.41275 0.05292,0.17991 0.09525,0.17991 0.02117,0 0.179916,-0.0741 0.486832,-0.254 0.920747,-0.66675 0.253999,-0.254 0.455082,-0.50799 0.211666,-0.26459 0.190499,-0.30692 -0.03175,-0.0741 -0.349248,-0.127 -0.317499,-0.0635 -0.613832,-0.0635 z"
         style="font-family:Droph;-inkscape-font-specification:Droph;fill:url(#linearGradient4422);fill-opacity:1"
         id="path4075" />
      <path
         d="m 55.504713,479.01969 q -0.264583,-0.0635 -0.412749,-0.25399 -0.158749,-0.17992 -0.158749,-0.43392 0,-0.30692 0.222249,-0.508 0.222249,-0.1905 0.582081,-0.1905 0.127,0 0.201083,-0.0635 0.0635,-0.0529 0.402165,-0.45508 0.15875,-0.1905 0.338666,-0.51858 0.179916,-0.32808 0.211666,-0.48683 0.02117,-0.0423 0,-0.0847 -0.01058,-0.0423 -0.04233,-0.0847 -0.02117,-0.0423 -0.09525,-0.10583 -0.169333,-0.15875 -0.465665,-0.59266 -0.285749,-0.4445 -0.497415,-0.68792 -0.222249,-0.24341 -0.264583,-0.39158 -0.07408,-0.23283 0.02117,-0.52917 0.08467,-0.30691 0.253999,-0.41274 0.232833,-0.13759 0.592665,-0.0106 0.179916,0.0635 0.285749,0.15875 0.105833,0.0847 0.179916,0.24342 0.08467,0.14816 0.169333,0.45508 0.08467,0.28575 0.243416,0.62441 0.158749,0.32809 0.222249,0.34925 0.07408,0.0317 0.201083,-0.11641 0.126999,-0.15875 0.201082,-0.35983 0.08467,-0.23284 0.179917,-0.42334 0.105833,-0.1905 0.179916,-0.28575 0.07408,-0.0952 0.105833,-0.0529 0.03175,0.0212 0.07408,0.3175 0.04233,0.29633 -0.03175,0.68791 -0.0635,0.39158 -0.09525,0.70908 -0.01058,0.28575 -0.264582,1.09008 -0.243416,0.80433 -0.412749,1.12183 -0.137583,0.26458 -0.518582,0.66675 -0.232832,0.254 -0.359832,0.34925 -0.126999,0.10583 -0.306916,0.1905 -0.275165,0.127 -0.529165,0.11641 -0.253999,0 -0.412748,-0.0317 z"
         style="font-family:Droph;-inkscape-font-specification:Droph;fill:url(#linearGradient4424);fill-opacity:1"
         id="path4077" />
    </g>
    <text
       xml:space="preserve"
       style="font-style:normal;font-weight:normal;font-size:10.5833px;line-height:1.25;font-family:sans-serif;fill:#000000;fill-opacity:1;stroke:none;stroke-width:0.264583"
       x="169.06152"
       y="498.90286"
       id="text6045"><tspan
         sodipodi:role="line"
         id="tspan6043"
         style="stroke-width:0.264583"
         x="169.06152"
         y="498.90286" /></text>
    <g
       aria-label="Settings"
       transform="matrix(0.82042473,-0.42182548,0.49566262,0.96403345,0,0)"
       id="text15581"
       style="font-size:15.4606px;line-height:1.25;fill:url(#linearGradient5289);stroke-width:0.386517;fill-opacity:1">
      <path
         d="m -89.764676,435.34162 c 0.179434,-0.297 -0.680266,-0.0515 -0.865793,-0.0928 -0.185527,-0.0515 -0.340133,-0.12884 -0.463818,-0.23191 -0.237063,-0.19583 -0.355594,-0.45351 -0.355594,-0.77303 0,-0.17522 0.02061,-0.30921 0.06184,-0.40198 0.04123,-0.0928 0.123683,-0.20614 0.24737,-0.34013 0.133992,-0.13399 0.278291,-0.21645 0.432897,-0.24737 0.164913,-0.0412 0.381361,-0.0412 0.649345,0 0.298905,0.0515 0.628731,0.0515 0.989478,0 0.329827,-0.0412 0.572043,-0.0927 0.726649,-0.1546 0.154606,-0.0619 0.314365,-0.17009 0.479278,-0.32468 0.154606,-0.15461 0.26283,-0.3659 0.324673,-0.63388 0.06184,-0.26799 0.154604,-0.5102 0.278291,-0.72665 0.08246,-0.15461 0.128838,-0.26798 0.139145,-0.34013 0.02061,-0.0721 0.02061,-0.22161 0,-0.44836 -0.103071,-1.31931 -0.195834,-2.31909 -0.278291,-2.99936 -0.09276,-0.82456 -0.02061,-1.46875 0.216449,-1.93257 0.247369,-0.50505 0.608117,-0.91733 1.082242,-1.23685 0.278291,-0.17522 0.530814,-0.27314 0.757569,-0.29375 0.154606,-0.0103 0.304058,0.005 0.448357,0.0464 0.154606,0.0309 0.231909,0.067 0.231909,0.10822 0,0.0206 -0.139145,0.0361 -0.417436,0.0464 -0.278291,0 -0.515353,0.0464 -0.711187,0.13914 -0.206141,0.0928 -0.43805,0.27314 -0.695727,0.54112 -0.257677,0.26799 -0.443204,0.52566 -0.556582,0.77303 -0.103071,0.19583 -0.164913,0.34529 -0.185527,0.44836 -0.01031,0.0928 -0.01546,0.32468 -0.01546,0.69573 0.01031,0.95855 0.17522,1.77796 0.494739,2.45823 0.185527,0.41229 0.319519,0.7885 0.401976,1.12863 0.08246,0.34013 0.195834,0.60296 0.340133,0.78849 0.113378,0.1443 0.195835,0.26798 0.24737,0.37105 0.05153,0.10307 0.08245,0.23191 0.09276,0.38652 0.02061,0.15461 0.02061,0.34529 0,0.57204 -0.02577,0.36075 -0.06828,0.66867 -0.127547,0.92377 -0.05927,0.2551 -0.135281,0.45738 -0.228046,0.60683 -0.05154,0.0722 -2.493527,3.94059 -2.323692,6.3143 0.169834,2.3737 8.548557,-6.44375 8.34242,-6.32522 -7.758626,18.95199 -3.7358,2.67475 -9.241054,9.62228 -9.363446,11.8165 1.459823,-8.59611 1.274295,-8.54458 -0.340133,0.10307 -10.797135,17.96156 -9.578669,12.96349 1.487331,-6.10093 7.785243,-12.88618 7.785243,-12.88618 z"
         style="font-family:Droph;-inkscape-font-specification:Droph;fill-opacity:1;fill:url(#linearGradient5289)"
         id="path3734"
         sodipodi:nodetypes="sccssccccscsccccccccsccsccccscsccscscscsss" />
      <path
         d="m -82.436389,429.55936 q 0.154606,0 0.371055,0.0618 0.401975,0.10822 0.587502,0.21645 0.185528,0.0928 0.262831,0.26283 0.0773,0.17007 0.0773,0.46382 0,0.34013 -0.185528,0.61842 -0.216448,0.34013 -0.587502,0.5102 -0.355594,0.15461 -1.035861,0.20099 -0.494739,0.0309 -0.618424,0.10822 -0.123684,0.0773 -0.123684,0.3556 0,0.24737 0.06184,0.40197 0.0773,0.15461 0.26283,0.37106 0.216449,0.24737 0.386515,0.32467 0.185527,0.0773 0.618424,0.13914 0.479279,0.0619 0.664806,0.17007 0.401976,0.24737 0.386515,0.72665 -0.01546,0.47928 -0.417436,0.72665 -0.216449,0.13914 -0.695727,0.13914 -0.479279,-0.0155 -0.788491,-0.1546 -0.479278,-0.23191 -0.850333,-0.57204 -0.371054,-0.3556 -0.541121,-0.74211 -0.200988,-0.47928 -0.139145,-1.74705 0.04638,-0.78849 0.200988,-1.0977 0.371054,-0.77303 1.221387,-1.19047 0.602963,-0.29375 0.881254,-0.29375 z m 0.01546,0.5875 q -0.386515,-0.0155 -0.850333,0.41744 -0.417436,0.37105 -0.417436,0.88125 0,0.27829 0.09276,0.32467 0.108224,0.0464 0.463818,-0.0618 0.324673,-0.0928 0.75757,-0.35559 0.432896,-0.26283 0.510199,-0.41744 0.0773,-0.1546 0.03092,-0.35559 -0.04638,-0.21645 -0.200988,-0.32467 -0.185527,-0.10823 -0.386515,-0.10823 z"
         style="font-family:Droph;-inkscape-font-specification:Droph;fill-opacity:1;fill:url(#linearGradient5289)"
         id="path3736" />
      <path
         d="m -77.844613,435.34162 q -0.541121,-0.10822 -0.834873,-0.24737 -0.293751,-0.13914 -0.587503,-0.43289 -0.371054,-0.37106 -0.510199,-0.68027 -0.309212,-0.68027 -0.185528,-2.14902 0.04638,-0.63389 0.01546,-0.78849 -0.03092,-0.17007 -0.26283,-0.44836 -0.108224,-0.13915 -0.139146,-0.21645 -0.03092,-0.0928 0,-0.13915 0.04638,-0.0618 0.185528,-0.10822 0.200987,-0.0618 0.247369,-0.17007 0.01546,-0.0155 0.01546,-0.38651 0.01546,-0.38652 0.01546,-0.86579 0,-0.49474 0.01546,-0.68027 0.01546,-0.21645 0.01546,-0.40198 0.01546,-0.20098 0.03092,-0.30921 0.01546,-0.10822 0.01546,-0.0928 0,0 0.01546,0 0.01546,0 0.03092,0.0155 0.01546,0 0.03092,0.0155 0.03092,0.0155 0.04638,0.0618 0.03092,0.0309 0.04638,0.0928 0.01546,0.0464 0.01546,0.13915 0.01546,0.0773 0.01546,0.18553 0,0.0773 -0.01546,0.27829 -0.03092,0.32467 -0.01546,0.64934 0.01546,0.32468 0.04638,0.58751 0.03092,0.24737 0.154606,0.38651 0.139145,0.12369 0.371054,0.0618 0.618424,-0.17006 0.989479,0.0773 0.371054,0.23191 0.371054,0.63388 0,0.32467 -0.293751,0.55658 -0.293752,0.21645 -0.742109,0.26283 -0.386515,0.0309 -0.432897,0.15461 -0.04638,0.10822 0.108224,0.60296 0.154606,0.54112 0.24737,0.71119 0.09276,0.15461 0.293751,0.29375 0.200988,0.13915 0.324673,0.15461 0.139145,0.0155 0.695727,-0.0309 0.448357,-0.0309 0.649345,0.0309 0.200988,0.0618 0.479279,0.30921 0.587502,0.55658 0.185527,1.28323 -0.340133,0.61842 -1.004939,0.64934 -0.371055,0.0155 -0.649345,-0.0464 z"
         style="font-family:Droph;-inkscape-font-specification:Droph;fill-opacity:1;fill:url(#linearGradient5289)"
         id="path3738" />
      <path
         d="m -73.16006,435.34162 q -0.541121,-0.10822 -0.834873,-0.24737 -0.293751,-0.13914 -0.587502,-0.43289 -0.371055,-0.37106 -0.5102,-0.68027 -0.309212,-0.68027 -0.185527,-2.14902 0.04638,-0.63389 0.01546,-0.78849 -0.03092,-0.17007 -0.26283,-0.44836 -0.108224,-0.13915 -0.139145,-0.21645 -0.03092,-0.0928 0,-0.13915 0.04638,-0.0618 0.185527,-0.10822 0.200988,-0.0618 0.247369,-0.17007 0.01546,-0.0155 0.01546,-0.38651 0.01546,-0.38652 0.01546,-0.86579 0,-0.49474 0.01546,-0.68027 0.01546,-0.21645 0.01546,-0.40198 0.01546,-0.20098 0.03092,-0.30921 0.01546,-0.10822 0.01546,-0.0928 0,0 0.01546,0 0.01546,0 0.03092,0.0155 0.01546,0 0.03092,0.0155 0.03092,0.0155 0.04638,0.0618 0.03092,0.0309 0.04638,0.0928 0.01546,0.0464 0.01546,0.13915 0.01546,0.0773 0.01546,0.18553 0,0.0773 -0.01546,0.27829 -0.03092,0.32467 -0.01546,0.64934 0.01546,0.32468 0.04638,0.58751 0.03092,0.24737 0.154606,0.38651 0.139145,0.12369 0.371054,0.0618 0.618424,-0.17006 0.989479,0.0773 0.371054,0.23191 0.371054,0.63388 0,0.32467 -0.293751,0.55658 -0.293752,0.21645 -0.742109,0.26283 -0.386515,0.0309 -0.432897,0.15461 -0.04638,0.10822 0.108224,0.60296 0.154606,0.54112 0.24737,0.71119 0.09276,0.15461 0.293751,0.29375 0.200988,0.13915 0.324673,0.15461 0.139145,0.0155 0.695727,-0.0309 0.448357,-0.0309 0.649345,0.0309 0.200988,0.0618 0.479279,0.30921 0.587503,0.55658 0.185527,1.28323 -0.340133,0.61842 -1.004939,0.64934 -0.371054,0.0155 -0.649345,-0.0464 z"
         style="font-family:Droph;-inkscape-font-specification:Droph;fill:url(#linearGradient5289);fill-opacity:1"
         id="path3740" />
      <path
         d="m -69.01662,425.27677 q 0.09276,0 0.139145,0.13915 0.04638,0.0773 0.06184,0.13914 0.03092,0.0618 0.04638,0.12369 0.03092,0.0464 0.06184,0.0928 0.03092,0.0464 0.04638,0.0773 0.01546,0.0155 0.06184,0.0618 0.06184,0.0464 0.0773,0.0773 0.01546,0.0155 0.09276,0.0928 0.0773,0.0618 0.123685,0.10823 0.185527,0.17006 0.27829,0.30921 0.09276,0.13914 0.108225,0.29375 0.03092,0.15461 -0.01546,0.34013 -0.01546,0.10823 -0.06184,0.20099 -0.04638,0.0773 -0.123685,0.15461 -0.06184,0.0618 -0.139146,0.10822 -0.0773,0.0309 -0.154606,0.0309 -0.139145,0 -0.355593,-0.18552 -0.170067,-0.15461 -0.231909,-0.40198 -0.04638,-0.24737 -0.04638,-0.69573 0,-0.46381 -0.03092,-0.72664 -0.03092,-0.21645 -0.03092,-0.2783 0.01546,-0.0618 0.09276,-0.0618 z m -0.09276,3.40133 q 0.01546,0 0.04638,0 0.0773,0.0155 0.09276,0.0619 0.03092,0.0464 0.03092,0.20098 -0.01546,0.23191 -0.139145,0.71119 -0.154606,0.64935 -0.200988,1.19047 -0.03092,0.54112 -0.04638,1.91711 -0.01546,0.81941 -0.03092,1.20593 0,0.37105 -0.03092,0.55658 -0.01546,0.17007 -0.06184,0.27829 -0.154606,0.34013 -0.401975,0.44836 -0.24737,0.10822 -0.432897,-0.10823 -0.417436,-0.43289 -0.216449,-2.38093 0.108225,-1.08224 0.432897,-1.70066 0.123685,-0.24737 0.432897,-1.19047 0.26283,-0.80395 0.340133,-0.98948 0.09276,-0.20099 0.185527,-0.20099 z"
         style="font-family:Droph;-inkscape-font-specification:Droph;fill-opacity:1;fill:url(#linearGradient5289)"
         id="path3742" />
      <path
         d="m -64.749542,435.75906 q -0.340134,-0.17007 -0.479279,-0.49474 -0.139145,-0.34013 -0.139145,-0.80395 0.01546,-0.46382 0.04638,-1.11316 0.01546,-0.49474 0.200988,-0.92764 0.185527,-0.4329 0.432897,-0.83487 0.24737,-0.41744 0.324673,-0.66481 0.26283,-0.77303 -1.221388,-1.94803 -0.293751,-0.24737 -0.943096,0.0464 -0.649345,0.27829 -0.695727,0.72665 -0.03092,0.32467 -0.123685,1.15954 -0.0773,0.5875 -0.0773,0.88125 0,0.29376 0.0773,1.11317 0.09276,1.175 0.154606,1.48422 0.0773,0.43289 0.04638,0.60296 -0.01546,0.17007 -0.170067,0.29375 -0.371054,0.30921 -0.695727,-0.0155 -0.123685,-0.12369 -0.154606,-0.21645 -0.01546,-0.0928 -0.01546,-0.46382 0,-0.5102 0.06184,-0.85033 0.06184,-0.35559 0.139145,-1.00494 0.0773,-0.6648 0.216449,-1.25231 0.154606,-0.5875 0.278291,-1.34507 0.03092,-0.23191 0,-0.47928 -0.03092,-0.24737 -0.06184,-0.47928 -0.03092,-0.24737 -0.04638,-0.43289 -0.01546,-0.18553 0.04638,-0.26283 0.0773,-0.0928 0.24737,-0.0464 0.185527,0.0464 0.123685,0.34014 -0.06184,0.23191 0.185527,0.23191 0.09276,0 0.309212,-0.10823 0.355593,-0.18552 0.602963,-0.24737 0.26283,-0.0773 0.479279,-0.0309 0.231909,0.0464 0.417436,0.17007 0.185527,0.12368 0.432897,0.37105 0.803951,0.83488 1.128623,1.57698 0.170067,0.38652 0.185528,0.91218 0.03092,0.52566 -0.04638,1.31415 -0.0773,0.77303 -0.09276,1.0204 -0.03092,0.95856 -0.293751,1.43784 -0.24737,0.46381 -0.881254,0.34013 z"
         style="font-family:Droph;-inkscape-font-specification:Droph;fill-opacity:1;fill:url(#linearGradient5291)"
         id="path3744" />
      <path
         d="m -63.172582,439.11401 q -0.26283,-0.0464 -0.757569,-0.10823 -0.572042,-0.0773 -0.834873,-0.32467 -0.26283,-0.23191 -0.26283,-0.69572 0,-0.46382 0.386515,-0.75757 0.185527,-0.15461 0.494739,-0.17007 0.293752,0 0.912176,0.10822 0.541121,0.10823 1.03586,0.0928 0.463818,-0.0309 0.834872,-0.20099 0.371055,-0.15461 0.881255,-0.57204 0.463818,-0.38652 0.664805,-0.55658 0.200988,-0.15461 0.371055,-0.47928 0.185527,-0.32468 0.123685,-0.38652 -0.0773,-0.0773 -0.324673,0.0618 -0.200988,0.10823 -0.417436,0.13915 -0.200988,0.0309 -0.448358,0 -0.231909,-0.0309 -0.587502,-0.13915 -0.602964,-0.18552 -0.834873,-0.30921 -0.216448,-0.13914 -0.371054,-0.37105 -0.123685,-0.17007 -0.200988,-0.30921 -0.0773,-0.13915 -0.123685,-0.27829 -0.04638,-0.13915 -0.06184,-0.2783 -0.01546,-0.13914 -0.01546,-0.30921 0,-0.5875 0.0773,-0.91217 0.09276,-0.32468 0.309212,-0.58751 0.231909,-0.27829 0.742109,-0.64934 0.633885,-0.47928 0.865794,-0.5875 0.247369,-0.10823 0.618424,-0.0619 l 0.247369,0.0619 q -0.649345,0.0309 -0.958557,0.34013 -0.231909,0.24737 -0.278291,0.46382 -0.04638,0.20099 0.0773,0.5102 0.139146,0.34013 0.185527,0.61842 0.03092,0.29375 0.123685,0.35559 0.09276,0.0464 0.355594,-0.0773 0.587503,-0.24737 1.082242,0 0.231909,0.10823 0.293751,0.10823 0.185528,0 0.108225,-0.74211 -0.04638,-0.57204 -0.24737,-1.00494 -0.185527,-0.44836 -0.417436,-0.52566 -0.0773,-0.0155 -0.04638,-0.0928 0.04638,-0.13914 0.340133,0.23191 l 0.200988,0.27829 q 0.139145,0.27829 0.216448,0.61843 0.0773,0.34013 0.24737,1.36053 0.170067,0.95856 0.185527,1.4533 0.01546,0.47928 -0.06184,0.97402 -0.09276,0.47927 -0.278291,1.0977 -0.170067,0.61842 -0.309212,0.86579 -0.231909,0.46382 -0.912175,0.91218 -0.680267,0.46381 -1.576982,0.74211 -0.757569,0.24736 -1.654284,0.0928 z"
         style="font-family:Droph;-inkscape-font-specification:Droph;fill-opacity:1;fill:url(#linearGradient5289)"
         id="path3746" />
      <path
         d="m -56.880154,435.34162 q -0.185527,-0.0773 -0.371054,-0.29375 -0.185527,-0.23191 -0.231909,-0.44836 -0.216448,-0.75757 0.602963,-1.175 0.293752,-0.15461 0.463818,-0.41744 0.170067,-0.26283 0.371055,-0.86579 0.139145,-0.46382 0.123685,-1.00494 -0.04638,-1.28323 0.03092,-1.71613 0.0773,-0.44835 0.432897,-0.95855 0.401975,-0.60297 0.77303,-0.83488 0.123684,-0.0773 0.04638,0.0155 l -0.185527,0.21645 q -0.757569,0.80395 -0.757569,1.73159 0.01546,0.35559 0.231909,0.91217 0.216448,0.55659 0.52566,0.98948 0.309212,0.41744 0.448358,0.77303 0.139145,0.34014 0.123684,0.92764 -0.01546,0.41744 -0.06184,0.55658 -0.03092,0.12369 -0.200988,0.4329 -0.5102,0.85033 -1.314151,1.11316 -0.664806,0.21645 -1.051321,0.0464 z"
         style="font-family:Droph;-inkscape-font-specification:Droph;fill-opacity:1;fill:url(#linearGradient5289)"
         id="path3748" />
    </g>
    <text
       xml:space="preserve"
       style="font-style:normal;font-weight:normal;font-size:18.1464px;line-height:1.25;font-family:sans-serif;fill:url(#linearGradient10520);fill-opacity:1;stroke:none;stroke-width:0.453659"
       x="212.62717"
       y="477.6922"
       id="text6376"
       transform="matrix(0.9108833,0.16268653,-0.17438005,1.0666907,0,0)"><tspan
         sodipodi:role="line"
         id="tspan6374"
         style="font-style:normal;font-variant:normal;font-weight:normal;font-stretch:normal;font-family:Droph;-inkscape-font-specification:Droph;fill:url(#linearGradient10520);fill-opacity:1;stroke-width:0.453659"
         x="212.62717"
         y="477.6922">QUIT</tspan></text>
    <g
       aria-label="Play"
       id="g10728"
       style="font-size:10.5833px;line-height:1.25;fill:url(#linearGradient10738);fill-opacity:1;stroke-width:0.264583"
       transform="matrix(2.1158646,0,0,1.7470544,-190.59243,-564.90279)"
       inkscape:export-filename="E:\PROJECTS\DICKY\dist\assets\graphics\ui\play.png"
       inkscape:export-xdpi="96"
       inkscape:export-ydpi="96">
      <path
         d="m 43.524455,476.40562 q -0.211666,0 -0.349249,-0.0847 -0.127,-0.0952 -0.211666,-0.21166 -0.201083,-0.29634 -0.07408,-1.16417 0.05292,-0.42333 0.07408,-0.55033 0.02117,-0.127 0.126999,-0.35983 0.137583,-0.30692 0.179917,-0.56091 0.04233,-0.26459 0.07408,-1.02658 0.0635,-1.59808 0.359832,-3.07974 0.158749,-0.79375 0.179916,-1.16417 0.02117,-0.381 0.09525,-0.45508 0.07408,-0.0741 0.07408,-0.127 0,-0.0635 0.126999,-0.20108 0.137583,-0.14817 0.243416,-0.20108 0.127,-0.0635 0.402166,-0.0317 0.285749,0.0212 0.719664,0.0529 0.433915,0.0317 0.645581,0.10583 0.211666,0.0635 0.465665,0.23284 0.465666,0.32808 0.698498,0.635 0.243416,0.30691 0.359832,0.69849 0.03175,0.13759 0.04233,0.58208 0.01058,0.43392 -0.02117,0.889 -0.02117,0.4445 -0.0635,0.59267 -0.0635,0.20108 -0.137583,0.33866 -0.0635,0.127 -0.169333,0.23283 -0.105833,0.10584 -0.275165,0.22225 -0.285749,0.1905 -0.518582,0.49742 -0.15875,0.21167 -0.338666,0.37041 -0.169332,0.15875 -0.243415,0.15875 -0.03175,0 -0.433916,0.24342 -0.402165,0.23283 -0.709081,0.29633 -0.264582,0.0529 -0.582081,0.0635 -0.317499,0 -0.349249,-0.0423 -0.02117,-0.0423 0.01058,-0.0423 0.04233,0 0.444499,-0.0423 0.698497,-0.0741 1.142996,-0.37041 0.222249,-0.13759 0.560915,-0.49742 0.338665,-0.37041 0.455082,-0.58208 l 0.08467,-0.16933 -0.08467,-0.33867 q -0.137583,-0.49741 -0.04233,-1.12183 0.01058,-0.11641 0.01058,-0.17991 0.01058,-0.0635 0,-0.13759 0,-0.0847 -0.02117,-0.14816 -0.01058,-0.0635 -0.05292,-0.20109 -0.105833,-0.34924 -0.169333,-0.44449 -0.05292,-0.0952 -0.328082,-0.26459 -0.529165,-0.34925 -1.100663,-0.3175 -0.28575,0.0212 -0.455082,-0.0635 -0.15875,-0.0952 -0.211666,-0.19049 -0.15875,-0.23284 -0.201083,0.0423 -0.02117,0.0741 -0.02117,0.1905 0,0.1905 -0.137583,1.17474 -0.09525,0.65617 -0.126999,0.94192 -0.02117,0.28575 -0.01058,0.79375 0.01058,1.25941 0.09525,2.04257 0.02117,0.17992 0.15875,0.5715 0.137583,0.39158 0.137583,0.51858 0,0.127 0.0635,0.51858 0.127,0.8255 -0.03175,1.05833 -0.211666,0.30692 -0.560915,0.30692 z"
         style="font-family:Droph;-inkscape-font-specification:Droph;fill:url(#linearGradient10730);fill-opacity:1"
         id="path10720" />
      <path
         d="m 49.250015,476.37387 c -0.113074,-0.17701 -0.331611,-0.14464 -0.550332,-0.30692 -0.211666,-0.16933 -0.359832,-0.32103 -0.444498,-0.45508 -0.04233,-0.0706 -0.09172,-0.19402 -0.148167,-0.37041 -0.04939,-0.18345 -0.08114,-0.35278 -0.09525,-0.508 -0.02117,-0.16933 0.05907,4.64015 -1.353805,4.2146 -1.857101,-0.55935 1.547829,-5.17062 1.576051,-5.60101 0.02822,-0.43039 0.05997,-0.76553 0.09525,-1.00542 0.04939,-0.29633 0.102303,-1.03716 0.158749,-2.22249 0.0071,-0.1905 0.02822,-0.30692 0.0635,-0.34925 0.02117,-0.0282 0.03881,-0.0423 0.05292,-0.0423 0.01411,0 0.03528,0.0141 0.0635,0.0423 0.04939,0.0423 0.08114,0.11289 0.09525,0.21167 0.01411,0.0917 0.02822,0.30338 0.04233,0.63499 0.04233,0.87489 0.09525,1.524 0.15875,1.94733 0.04233,0.254 0.0635,0.47978 0.0635,0.67733 0,0.45861 0.05644,0.79022 0.169333,0.99483 0.07055,0.11289 0.105833,0.19051 0.105833,0.23284 0,0.0635 0.04586,0.1446 0.137583,0.24341 0.09878,0.0988 0.194027,0.16934 0.285749,0.21167 0.324555,0.15522 0.486832,0.39511 0.486832,0.71966 0,0.22578 -0.08467,0.41275 -0.253999,0.56092 -0.211666,0.1905 1.681625,5.85422 -0.280716,5.88087 -1.909017,0.0259 0.599423,-4.1026 -0.428363,-5.71154 z"
         style="font-family:Droph;-inkscape-font-specification:Droph;fill:url(#linearGradient10732);fill-opacity:1"
         id="path10722"
         sodipodi:nodetypes="accccascccsccccscsccscaa" />
      <path
         d="m 52.393243,472.75438 q 0.698497,0.0106 1.142996,0.28575 0.148166,0.0953 0.370416,0.0953 0.656164,0 0.719664,0.65616 0.02117,0.21167 0.137583,0.29634 0.158749,0.11641 0.201083,0.28575 0.05292,0.15875 0.08467,0.62441 0.02117,0.5715 0.05292,0.8255 0.01058,0.17991 -0.01058,0.23283 -0.01058,0.0529 -0.126999,0.17992 -0.105833,0.10583 -0.169333,0.13758 -0.05292,0.0317 -0.201083,0.0423 -0.211666,0.0106 -0.275166,-0.0106 -0.05292,-0.0317 -0.190499,-0.14817 -0.1905,-0.1905 -0.317499,-0.84666 -0.04233,-0.23283 -0.0635,-0.32808 -0.04233,-0.15875 -0.328082,0.0317 -0.0635,0.0423 -0.15875,0.11641 -0.86783,0.64558 -1.396995,0.77258 -0.518582,0.11642 -0.910164,-0.24341 -0.370416,-0.32808 -0.444499,-0.85725 -0.04233,-0.28575 0.01058,-0.52916 0.04233,-0.24342 0.201082,-0.48684 0.148167,-0.254 0.433916,-0.57149 0.306915,-0.33867 0.539748,-0.4445 0.158749,-0.0847 0.264582,-0.0952 0.105833,-0.0212 0.433916,-0.0212 z m 0.158749,0.254 q -0.169333,0 -0.275166,0.0212 -0.232832,0.0635 -0.444498,0.29633 -0.211666,0.23283 -0.243416,0.46566 -0.01058,0.127 0.01058,0.37042 0.03175,0.23283 0.07408,0.41275 0.05292,0.17991 0.09525,0.17991 0.02117,0 0.179916,-0.0741 0.486832,-0.254 0.920747,-0.66675 0.253999,-0.254 0.455082,-0.50799 0.211666,-0.26459 0.190499,-0.30692 -0.03175,-0.0741 -0.349248,-0.127 -0.317499,-0.0635 -0.613832,-0.0635 z"
         style="font-family:Droph;-inkscape-font-specification:Droph;fill:url(#linearGradient10734);fill-opacity:1"
         id="path10724" />
      <path
         d="m 55.504713,479.01969 q -0.264583,-0.0635 -0.412749,-0.25399 -0.158749,-0.17992 -0.158749,-0.43392 0,-0.30692 0.222249,-0.508 0.222249,-0.1905 0.582081,-0.1905 0.127,0 0.201083,-0.0635 0.0635,-0.0529 0.402165,-0.45508 0.15875,-0.1905 0.338666,-0.51858 0.179916,-0.32808 0.211666,-0.48683 0.02117,-0.0423 0,-0.0847 -0.01058,-0.0423 -0.04233,-0.0847 -0.02117,-0.0423 -0.09525,-0.10583 -0.169333,-0.15875 -0.465665,-0.59266 -0.285749,-0.4445 -0.497415,-0.68792 -0.222249,-0.24341 -0.264583,-0.39158 -0.07408,-0.23283 0.02117,-0.52917 0.08467,-0.30691 0.253999,-0.41274 0.232833,-0.13759 0.592665,-0.0106 0.179916,0.0635 0.285749,0.15875 0.105833,0.0847 0.179916,0.24342 0.08467,0.14816 0.169333,0.45508 0.08467,0.28575 0.243416,0.62441 0.158749,0.32809 0.222249,0.34925 0.07408,0.0317 0.201083,-0.11641 0.126999,-0.15875 0.201082,-0.35983 0.08467,-0.23284 0.179917,-0.42334 0.105833,-0.1905 0.179916,-0.28575 0.07408,-0.0952 0.105833,-0.0529 0.03175,0.0212 0.07408,0.3175 0.04233,0.29633 -0.03175,0.68791 -0.0635,0.39158 -0.09525,0.70908 -0.01058,0.28575 -0.264582,1.09008 -0.243416,0.80433 -0.412749,1.12183 -0.137583,0.26458 -0.518582,0.66675 -0.232832,0.254 -0.359832,0.34925 -0.126999,0.10583 -0.306916,0.1905 -0.275165,0.127 -0.529165,0.11641 -0.253999,0 -0.412748,-0.0317 z"
         style="font-family:Droph;-inkscape-font-specification:Droph;fill:url(#linearGradient10736);fill-opacity:1"
         id="path10726" />
    </g>
    <g
       aria-label="Settings"
       transform="matrix(0.82042473,-0.42182548,0.49566262,0.96403345,-236.45769,-149.64231)"
       id="g10756"
       style="font-size:15.4606px;line-height:1.25;fill:url(#linearGradient10774);fill-opacity:1;stroke-width:0.386517"
       inkscape:export-filename="E:\PROJECTS\DICKY\dist\assets\graphics\ui\settings.png"
       inkscape:export-xdpi="96"
       inkscape:export-ydpi="96">
      <path
         d="m -89.764676,435.34162 c 0.179434,-0.297 -0.680266,-0.0515 -0.865793,-0.0928 -0.185527,-0.0515 -0.340133,-0.12884 -0.463818,-0.23191 -0.237063,-0.19583 -0.355594,-0.45351 -0.355594,-0.77303 0,-0.17522 0.02061,-0.30921 0.06184,-0.40198 0.04123,-0.0928 0.123683,-0.20614 0.24737,-0.34013 0.133992,-0.13399 0.278291,-0.21645 0.432897,-0.24737 0.164913,-0.0412 0.381361,-0.0412 0.649345,0 0.298905,0.0515 0.628731,0.0515 0.989478,0 0.329827,-0.0412 0.572043,-0.0927 0.726649,-0.1546 0.154606,-0.0619 0.314365,-0.17009 0.479278,-0.32468 0.154606,-0.15461 0.26283,-0.3659 0.324673,-0.63388 0.06184,-0.26799 0.154604,-0.5102 0.278291,-0.72665 0.08246,-0.15461 0.128838,-0.26798 0.139145,-0.34013 0.02061,-0.0721 0.02061,-0.22161 0,-0.44836 -0.103071,-1.31931 -0.195834,-2.31909 -0.278291,-2.99936 -0.09276,-0.82456 -0.02061,-1.46875 0.216449,-1.93257 0.247369,-0.50505 0.608117,-0.91733 1.082242,-1.23685 0.278291,-0.17522 0.530814,-0.27314 0.757569,-0.29375 0.154606,-0.0103 0.304058,0.005 0.448357,0.0464 0.154606,0.0309 0.231909,0.067 0.231909,0.10822 0,0.0206 -0.139145,0.0361 -0.417436,0.0464 -0.278291,0 -0.515353,0.0464 -0.711187,0.13914 -0.206141,0.0928 -0.43805,0.27314 -0.695727,0.54112 -0.257677,0.26799 -0.443204,0.52566 -0.556582,0.77303 -0.103071,0.19583 -0.164913,0.34529 -0.185527,0.44836 -0.01031,0.0928 -0.01546,0.32468 -0.01546,0.69573 0.01031,0.95855 0.17522,1.77796 0.494739,2.45823 0.185527,0.41229 0.319519,0.7885 0.401976,1.12863 0.08246,0.34013 0.195834,0.60296 0.340133,0.78849 0.113378,0.1443 0.195835,0.26798 0.24737,0.37105 0.05153,0.10307 0.08245,0.23191 0.09276,0.38652 0.02061,0.15461 0.02061,0.34529 0,0.57204 -0.02577,0.36075 -0.06828,0.66867 -0.127547,0.92377 -0.05927,0.2551 -0.135281,0.45738 -0.228046,0.60683 -0.05154,0.0722 -2.493527,3.94059 -2.323692,6.3143 0.169834,2.3737 8.548557,-6.44375 8.34242,-6.32522 -7.758626,18.95199 -3.7358,2.67475 -9.241054,9.62228 -9.363446,11.8165 1.459823,-8.59611 1.274295,-8.54458 -0.340133,0.10307 -10.797135,17.96156 -9.578669,12.96349 1.487331,-6.10093 7.785243,-12.88618 7.785243,-12.88618 z"
         style="font-family:Droph;-inkscape-font-specification:Droph;fill:url(#linearGradient10758);fill-opacity:1"
         id="path10740"
         sodipodi:nodetypes="sccssccccscsccccccccsccsccccscsccscscscsss" />
      <path
         d="m -82.436389,429.55936 q 0.154606,0 0.371055,0.0618 0.401975,0.10822 0.587502,0.21645 0.185528,0.0928 0.262831,0.26283 0.0773,0.17007 0.0773,0.46382 0,0.34013 -0.185528,0.61842 -0.216448,0.34013 -0.587502,0.5102 -0.355594,0.15461 -1.035861,0.20099 -0.494739,0.0309 -0.618424,0.10822 -0.123684,0.0773 -0.123684,0.3556 0,0.24737 0.06184,0.40197 0.0773,0.15461 0.26283,0.37106 0.216449,0.24737 0.386515,0.32467 0.185527,0.0773 0.618424,0.13914 0.479279,0.0619 0.664806,0.17007 0.401976,0.24737 0.386515,0.72665 -0.01546,0.47928 -0.417436,0.72665 -0.216449,0.13914 -0.695727,0.13914 -0.479279,-0.0155 -0.788491,-0.1546 -0.479278,-0.23191 -0.850333,-0.57204 -0.371054,-0.3556 -0.541121,-0.74211 -0.200988,-0.47928 -0.139145,-1.74705 0.04638,-0.78849 0.200988,-1.0977 0.371054,-0.77303 1.221387,-1.19047 0.602963,-0.29375 0.881254,-0.29375 z m 0.01546,0.5875 q -0.386515,-0.0155 -0.850333,0.41744 -0.417436,0.37105 -0.417436,0.88125 0,0.27829 0.09276,0.32467 0.108224,0.0464 0.463818,-0.0618 0.324673,-0.0928 0.75757,-0.35559 0.432896,-0.26283 0.510199,-0.41744 0.0773,-0.1546 0.03092,-0.35559 -0.04638,-0.21645 -0.200988,-0.32467 -0.185527,-0.10823 -0.386515,-0.10823 z"
         style="font-family:Droph;-inkscape-font-specification:Droph;fill:url(#linearGradient10760);fill-opacity:1"
         id="path10742" />
      <path
         d="m -77.844613,435.34162 q -0.541121,-0.10822 -0.834873,-0.24737 -0.293751,-0.13914 -0.587503,-0.43289 -0.371054,-0.37106 -0.510199,-0.68027 -0.309212,-0.68027 -0.185528,-2.14902 0.04638,-0.63389 0.01546,-0.78849 -0.03092,-0.17007 -0.26283,-0.44836 -0.108224,-0.13915 -0.139146,-0.21645 -0.03092,-0.0928 0,-0.13915 0.04638,-0.0618 0.185528,-0.10822 0.200987,-0.0618 0.247369,-0.17007 0.01546,-0.0155 0.01546,-0.38651 0.01546,-0.38652 0.01546,-0.86579 0,-0.49474 0.01546,-0.68027 0.01546,-0.21645 0.01546,-0.40198 0.01546,-0.20098 0.03092,-0.30921 0.01546,-0.10822 0.01546,-0.0928 0,0 0.01546,0 0.01546,0 0.03092,0.0155 0.01546,0 0.03092,0.0155 0.03092,0.0155 0.04638,0.0618 0.03092,0.0309 0.04638,0.0928 0.01546,0.0464 0.01546,0.13915 0.01546,0.0773 0.01546,0.18553 0,0.0773 -0.01546,0.27829 -0.03092,0.32467 -0.01546,0.64934 0.01546,0.32468 0.04638,0.58751 0.03092,0.24737 0.154606,0.38651 0.139145,0.12369 0.371054,0.0618 0.618424,-0.17006 0.989479,0.0773 0.371054,0.23191 0.371054,0.63388 0,0.32467 -0.293751,0.55658 -0.293752,0.21645 -0.742109,0.26283 -0.386515,0.0309 -0.432897,0.15461 -0.04638,0.10822 0.108224,0.60296 0.154606,0.54112 0.24737,0.71119 0.09276,0.15461 0.293751,0.29375 0.200988,0.13915 0.324673,0.15461 0.139145,0.0155 0.695727,-0.0309 0.448357,-0.0309 0.649345,0.0309 0.200988,0.0618 0.479279,0.30921 0.587502,0.55658 0.185527,1.28323 -0.340133,0.61842 -1.004939,0.64934 -0.371055,0.0155 -0.649345,-0.0464 z"
         style="font-family:Droph;-inkscape-font-specification:Droph;fill:url(#linearGradient10762);fill-opacity:1"
         id="path10744" />
      <path
         d="m -73.16006,435.34162 q -0.541121,-0.10822 -0.834873,-0.24737 -0.293751,-0.13914 -0.587502,-0.43289 -0.371055,-0.37106 -0.5102,-0.68027 -0.309212,-0.68027 -0.185527,-2.14902 0.04638,-0.63389 0.01546,-0.78849 -0.03092,-0.17007 -0.26283,-0.44836 -0.108224,-0.13915 -0.139145,-0.21645 -0.03092,-0.0928 0,-0.13915 0.04638,-0.0618 0.185527,-0.10822 0.200988,-0.0618 0.247369,-0.17007 0.01546,-0.0155 0.01546,-0.38651 0.01546,-0.38652 0.01546,-0.86579 0,-0.49474 0.01546,-0.68027 0.01546,-0.21645 0.01546,-0.40198 0.01546,-0.20098 0.03092,-0.30921 0.01546,-0.10822 0.01546,-0.0928 0,0 0.01546,0 0.01546,0 0.03092,0.0155 0.01546,0 0.03092,0.0155 0.03092,0.0155 0.04638,0.0618 0.03092,0.0309 0.04638,0.0928 0.01546,0.0464 0.01546,0.13915 0.01546,0.0773 0.01546,0.18553 0,0.0773 -0.01546,0.27829 -0.03092,0.32467 -0.01546,0.64934 0.01546,0.32468 0.04638,0.58751 0.03092,0.24737 0.154606,0.38651 0.139145,0.12369 0.371054,0.0618 0.618424,-0.17006 0.989479,0.0773 0.371054,0.23191 0.371054,0.63388 0,0.32467 -0.293751,0.55658 -0.293752,0.21645 -0.742109,0.26283 -0.386515,0.0309 -0.432897,0.15461 -0.04638,0.10822 0.108224,0.60296 0.154606,0.54112 0.24737,0.71119 0.09276,0.15461 0.293751,0.29375 0.200988,0.13915 0.324673,0.15461 0.139145,0.0155 0.695727,-0.0309 0.448357,-0.0309 0.649345,0.0309 0.200988,0.0618 0.479279,0.30921 0.587503,0.55658 0.185527,1.28323 -0.340133,0.61842 -1.004939,0.64934 -0.371054,0.0155 -0.649345,-0.0464 z"
         style="font-family:Droph;-inkscape-font-specification:Droph;fill:url(#linearGradient10764);fill-opacity:1"
         id="path10746" />
      <path
         d="m -69.01662,425.27677 q 0.09276,0 0.139145,0.13915 0.04638,0.0773 0.06184,0.13914 0.03092,0.0618 0.04638,0.12369 0.03092,0.0464 0.06184,0.0928 0.03092,0.0464 0.04638,0.0773 0.01546,0.0155 0.06184,0.0618 0.06184,0.0464 0.0773,0.0773 0.01546,0.0155 0.09276,0.0928 0.0773,0.0618 0.123685,0.10823 0.185527,0.17006 0.27829,0.30921 0.09276,0.13914 0.108225,0.29375 0.03092,0.15461 -0.01546,0.34013 -0.01546,0.10823 -0.06184,0.20099 -0.04638,0.0773 -0.123685,0.15461 -0.06184,0.0618 -0.139146,0.10822 -0.0773,0.0309 -0.154606,0.0309 -0.139145,0 -0.355593,-0.18552 -0.170067,-0.15461 -0.231909,-0.40198 -0.04638,-0.24737 -0.04638,-0.69573 0,-0.46381 -0.03092,-0.72664 -0.03092,-0.21645 -0.03092,-0.2783 0.01546,-0.0618 0.09276,-0.0618 z m -0.09276,3.40133 q 0.01546,0 0.04638,0 0.0773,0.0155 0.09276,0.0619 0.03092,0.0464 0.03092,0.20098 -0.01546,0.23191 -0.139145,0.71119 -0.154606,0.64935 -0.200988,1.19047 -0.03092,0.54112 -0.04638,1.91711 -0.01546,0.81941 -0.03092,1.20593 0,0.37105 -0.03092,0.55658 -0.01546,0.17007 -0.06184,0.27829 -0.154606,0.34013 -0.401975,0.44836 -0.24737,0.10822 -0.432897,-0.10823 -0.417436,-0.43289 -0.216449,-2.38093 0.108225,-1.08224 0.432897,-1.70066 0.123685,-0.24737 0.432897,-1.19047 0.26283,-0.80395 0.340133,-0.98948 0.09276,-0.20099 0.185527,-0.20099 z"
         style="font-family:Droph;-inkscape-font-specification:Droph;fill:url(#linearGradient10766);fill-opacity:1"
         id="path10748" />
      <path
         d="m -64.749542,435.75906 q -0.340134,-0.17007 -0.479279,-0.49474 -0.139145,-0.34013 -0.139145,-0.80395 0.01546,-0.46382 0.04638,-1.11316 0.01546,-0.49474 0.200988,-0.92764 0.185527,-0.4329 0.432897,-0.83487 0.24737,-0.41744 0.324673,-0.66481 0.26283,-0.77303 -1.221388,-1.94803 -0.293751,-0.24737 -0.943096,0.0464 -0.649345,0.27829 -0.695727,0.72665 -0.03092,0.32467 -0.123685,1.15954 -0.0773,0.5875 -0.0773,0.88125 0,0.29376 0.0773,1.11317 0.09276,1.175 0.154606,1.48422 0.0773,0.43289 0.04638,0.60296 -0.01546,0.17007 -0.170067,0.29375 -0.371054,0.30921 -0.695727,-0.0155 -0.123685,-0.12369 -0.154606,-0.21645 -0.01546,-0.0928 -0.01546,-0.46382 0,-0.5102 0.06184,-0.85033 0.06184,-0.35559 0.139145,-1.00494 0.0773,-0.6648 0.216449,-1.25231 0.154606,-0.5875 0.278291,-1.34507 0.03092,-0.23191 0,-0.47928 -0.03092,-0.24737 -0.06184,-0.47928 -0.03092,-0.24737 -0.04638,-0.43289 -0.01546,-0.18553 0.04638,-0.26283 0.0773,-0.0928 0.24737,-0.0464 0.185527,0.0464 0.123685,0.34014 -0.06184,0.23191 0.185527,0.23191 0.09276,0 0.309212,-0.10823 0.355593,-0.18552 0.602963,-0.24737 0.26283,-0.0773 0.479279,-0.0309 0.231909,0.0464 0.417436,0.17007 0.185527,0.12368 0.432897,0.37105 0.803951,0.83488 1.128623,1.57698 0.170067,0.38652 0.185528,0.91218 0.03092,0.52566 -0.04638,1.31415 -0.0773,0.77303 -0.09276,1.0204 -0.03092,0.95856 -0.293751,1.43784 -0.24737,0.46381 -0.881254,0.34013 z"
         style="font-family:Droph;-inkscape-font-specification:Droph;fill:url(#linearGradient10768);fill-opacity:1"
         id="path10750" />
      <path
         d="m -63.172582,439.11401 q -0.26283,-0.0464 -0.757569,-0.10823 -0.572042,-0.0773 -0.834873,-0.32467 -0.26283,-0.23191 -0.26283,-0.69572 0,-0.46382 0.386515,-0.75757 0.185527,-0.15461 0.494739,-0.17007 0.293752,0 0.912176,0.10822 0.541121,0.10823 1.03586,0.0928 0.463818,-0.0309 0.834872,-0.20099 0.371055,-0.15461 0.881255,-0.57204 0.463818,-0.38652 0.664805,-0.55658 0.200988,-0.15461 0.371055,-0.47928 0.185527,-0.32468 0.123685,-0.38652 -0.0773,-0.0773 -0.324673,0.0618 -0.200988,0.10823 -0.417436,0.13915 -0.200988,0.0309 -0.448358,0 -0.231909,-0.0309 -0.587502,-0.13915 -0.602964,-0.18552 -0.834873,-0.30921 -0.216448,-0.13914 -0.371054,-0.37105 -0.123685,-0.17007 -0.200988,-0.30921 -0.0773,-0.13915 -0.123685,-0.27829 -0.04638,-0.13915 -0.06184,-0.2783 -0.01546,-0.13914 -0.01546,-0.30921 0,-0.5875 0.0773,-0.91217 0.09276,-0.32468 0.309212,-0.58751 0.231909,-0.27829 0.742109,-0.64934 0.633885,-0.47928 0.865794,-0.5875 0.247369,-0.10823 0.618424,-0.0619 l 0.247369,0.0619 q -0.649345,0.0309 -0.958557,0.34013 -0.231909,0.24737 -0.278291,0.46382 -0.04638,0.20099 0.0773,0.5102 0.139146,0.34013 0.185527,0.61842 0.03092,0.29375 0.123685,0.35559 0.09276,0.0464 0.355594,-0.0773 0.587503,-0.24737 1.082242,0 0.231909,0.10823 0.293751,0.10823 0.185528,0 0.108225,-0.74211 -0.04638,-0.57204 -0.24737,-1.00494 -0.185527,-0.44836 -0.417436,-0.52566 -0.0773,-0.0155 -0.04638,-0.0928 0.04638,-0.13914 0.340133,0.23191 l 0.200988,0.27829 q 0.139145,0.27829 0.216448,0.61843 0.0773,0.34013 0.24737,1.36053 0.170067,0.95856 0.185527,1.4533 0.01546,0.47928 -0.06184,0.97402 -0.09276,0.47927 -0.278291,1.0977 -0.170067,0.61842 -0.309212,0.86579 -0.231909,0.46382 -0.912175,0.91218 -0.680267,0.46381 -1.576982,0.74211 -0.757569,0.24736 -1.654284,0.0928 z"
         style="font-family:Droph;-inkscape-font-specification:Droph;fill:url(#linearGradient10770);fill-opacity:1"
         id="path10752" />
      <path
         d="m -56.880154,435.34162 q -0.185527,-0.0773 -0.371054,-0.29375 -0.185527,-0.23191 -0.231909,-0.44836 -0.216448,-0.75757 0.602963,-1.175 0.293752,-0.15461 0.463818,-0.41744 0.170067,-0.26283 0.371055,-0.86579 0.139145,-0.46382 0.123685,-1.00494 -0.04638,-1.28323 0.03092,-1.71613 0.0773,-0.44835 0.432897,-0.95855 0.401975,-0.60297 0.77303,-0.83488 0.123684,-0.0773 0.04638,0.0155 l -0.185527,0.21645 q -0.757569,0.80395 -0.757569,1.73159 0.01546,0.35559 0.231909,0.91217 0.216448,0.55659 0.52566,0.98948 0.309212,0.41744 0.448358,0.77303 0.139145,0.34014 0.123684,0.92764 -0.01546,0.41744 -0.06184,0.55658 -0.03092,0.12369 -0.200988,0.4329 -0.5102,0.85033 -1.314151,1.11316 -0.664806,0.21645 -1.051321,0.0464 z"
         style="font-family:Droph;-inkscape-font-specification:Droph;fill:url(#linearGradient10772);fill-opacity:1"
         id="path10754" />
    </g>
    <text
       xml:space="preserve"
       style="font-style:normal;font-weight:normal;font-size:18.1464px;line-height:1.25;font-family:sans-serif;fill:url(#linearGradient10780);fill-opacity:1;stroke:none;stroke-width:0.453659"
       x="-41.606716"
       y="341.91177"
       id="text10778"
       transform="matrix(0.91088329,0.16268653,-0.17438005,1.0666907,0,0)"
       inkscape:export-filename="E:\PROJECTS\DICKY\dist\assets\graphics\ui\quit.png"
       inkscape:export-xdpi="96"
       inkscape:export-ydpi="96"><tspan
         sodipodi:role="line"
         id="tspan10776"
         style="font-style:normal;font-variant:normal;font-weight:normal;font-stretch:normal;font-family:Droph;-inkscape-font-specification:Droph;fill:url(#linearGradient10780);fill-opacity:1;stroke-width:0.453659"
         x="-41.606716"
         y="341.91177">QUIT</tspan></text>
    <path
       id="path10782"
       style="opacity:1;fill:url(#linearGradient10784);fill-opacity:1;stroke:none;stroke-width:0.0430001"
       d="m -60.421317,404.69362 -42.170223,-19.02579 c 0,0 -3.62681,4.11055 -2.81864,6.24744 0.6819,1.80301 4.35478,0.6824 5.27128,2.37823 0.962113,1.78022 -2.82571,5.25433 -0.94333,5.99698 2.493933,0.98393 1.927823,-7.37325 4.511793,-6.65841 3.54187,0.97983 -3.03331,10.56087 0.61434,11.00757 1.80922,0.22156 0.0268,-4.32723 1.61318,-5.22482 1.14259,-0.64648 2.88273,0.027 3.82406,0.94204 1.02088,0.99238 -0.18388,3.58936 1.13862,4.11662 1.82731,0.72854 3.1408,-3.49814 5.05517,-3.04531 1.26216,0.29855 1.78219,2.02595 2.0802,3.28824 0.50751,2.14967 -2.75313,5.87611 -0.66396,6.59296 2.22679,0.76408 1.61203,-5.00846 3.7559,-5.98123 1.65077,-0.74904 3.8103,-0.0666 5.37041,0.85647 1.79575,1.06253 3.613,2.86945 3.83973,4.94364 0.34399,3.14696 -6.55875,6.62837 -4.06769,8.58191 3.64301,2.85692 7.94797,-5.09941 10.77052,-8.7691 1.39287,-1.81091 2.81864,-6.24744 2.81864,-6.24744 z"
       sodipodi:nodetypes="ccaaaaaaaaaaaaaaaac"
       inkscape:export-filename="E:\PROJECTS\DICKY\dist\assets\graphics\ui\splatter.png"
       inkscape:export-xdpi="96"
       inkscape:export-ydpi="96" />
  </g>
</svg>
