<?xml version="1.0" encoding="UTF-8" standalone="no"?>
<!-- Created with Inkscape (http://www.inkscape.org/) -->

<svg
   width="210mm"
   height="297mm"
   viewBox="0 0 210 297"
   version="1.1"
   id="svg5"
   inkscape:version="1.1 (c68e22c387, 2021-05-23)"
   sodipodi:docname="Vagina_000.svg"
   xmlns:inkscape="http://www.inkscape.org/namespaces/inkscape"
   xmlns:sodipodi="http://sodipodi.sourceforge.net/DTD/sodipodi-0.dtd"
   xmlns="http://www.w3.org/2000/svg"
   xmlns:svg="http://www.w3.org/2000/svg">
  <sodipodi:namedview
     id="namedview7"
     pagecolor="#505050"
     bordercolor="#ffffff"
     borderopacity="1"
     inkscape:pageshadow="0"
     inkscape:pageopacity="0"
     inkscape:pagecheckerboard="1"
     inkscape:document-units="mm"
     showgrid="false"
     inkscape:zoom="0.23162177"
     inkscape:cx="23.745609"
     inkscape:cy="1087.9806"
     inkscape:window-width="1284"
     inkscape:window-height="728"
     inkscape:window-x="25"
     inkscape:window-y="0"
     inkscape:window-maximized="0"
     inkscape:current-layer="layer1"
     inkscape:snap-global="true"
     showguides="false" />
  <defs
     id="defs2">
    <filter
       inkscape:collect="always"
       style="color-interpolation-filters:sRGB"
       id="filter38583"
       x="-0.11873503"
       y="-0.1144357"
       width="1.2374701"
       height="1.2288714">
      <feGaussianBlur
         inkscape:collect="always"
         stdDeviation="7.4851007"
         id="feGaussianBlur38585" />
    </filter>
  </defs>
  <g
     inkscape:label="Layer 1"
     inkscape:groupmode="layer"
     id="layer1">
    <path
       id="path19817"
       style="fill:#eed4c7;stroke:#000000;stroke-width:0.34633;fill-opacity:1"
       d="m 109.19728,79.947197 c 0,28.580763 -6.37286,54.455783 -16.676376,73.185623 -10.303517,18.72983 -24.941562,16.17913 -40.6642,16.17913 -15.722638,0 -29.552948,2.5507 -39.856465,-16.17914 C 1.6967214,134.40298 -4.6761365,108.52796 -4.676136,79.947197 c 9e-7,-57.161522 25.491432,-103.500092 56.936707,-103.500092 31.445276,-2e-6 56.936709,46.338569 56.936709,103.500092 z"
       sodipodi:nodetypes="sssssss" />
    <g
       id="g19599"
       transform="translate(58.828846,7.5685091)">
      <path
         id="path846"
         style="fill:#eed4c7;fill-opacity:1;stroke:#000000;stroke-width:0.07355417;stroke-miterlimit:4;stroke-dasharray:none"
         d="m 14.550419,88.95721 c 1.009667,20.60249 -9.6187731,28.61912 -13.4855652,42.06871 -3.7413374,13.01323 -7.8839844,32.12312 -7.9186999,28.02642 -0.05818,-6.86573 -4.6382609,-12.14541 -9.6076639,-24.34262 -4.969403,-12.19722 -16.789996,-23.84043 -14.366794,-44.039049 2.333789,-19.453323 10.453955,-35.478732 15.066387,-48.889647 4.612431,-13.410915 7.7135847,-28.43702 7.4801863,-24.346826 -0.3456873,6.058001 4.9584833,11.719146 9.6423089,24.701696 C 6.0444038,55.118443 13.591384,69.387881 14.550419,88.95721 Z"
         sodipodi:nodetypes="sssssssss" />
      <path
         id="path2788"
         style="fill:#f5d9cb;fill-opacity:1;stroke:#000000;stroke-width:0.07090833;stroke-miterlimit:4;stroke-dasharray:none"
         d="m 5.2483703,75.99138 c 2.6013393,16.241199 -4.74979176,39.40001 -8.4874953,49.56092 -3.648085,9.91728 -3.1276978,26.48928 -3.1458708,23.22033 -0.03046,-5.47849 -4.0270612,-13.77239 -7.7425342,-23.13663 -4.314914,-10.87504 -9.088807,-33.104015 -6.093043,-48.991304 2.792397,-14.808784 6.602211,-17.101138 9.600623,-27.588279 3.1572513,-11.042693 2.610129,-17.408065 2.487946,-14.144307 -0.180965,4.833965 0.2617323,4.08569 3.6198044,14.427474 3.345068,10.301735 7.2594826,11.03651 9.7605699,26.651796 z"
         sodipodi:nodetypes="sssssssss" />
      <path
         id="path5138"
         style="fill:#efded0;fill-opacity:1;stroke:#000000;stroke-width:0.08228542;stroke-miterlimit:4;stroke-dasharray:none"
         d="m -0.85713954,80.660995 c 0.4610126,11.453917 -1.93589366,28.608215 -3.90873806,35.728245 -1.9255417,6.94932 -4.5066387,16.84832 -4.5162309,14.55767 -0.016077,-3.83893 -0.6976893,-8.65117 -2.6588005,-15.21296 -2.277509,-7.62044 -3.940546,-23.48249 -2.359314,-34.615158 1.47389,-10.376929 3.484796,-11.983246 5.0674254,-19.331879 1.6664686,-7.737924 1.3776851,-12.198319 1.3131941,-9.911312 -0.095517,3.387295 1.280456,2.862957 3.0529223,10.109735 1.7656025,7.218714 3.5461421,7.162437 4.00954166,18.675659 z"
         sodipodi:nodetypes="sssssssss" />
      <path
         id="path5646"
         style="fill:#f1d5c0;fill-opacity:1;stroke:#000000;stroke-width:0.07990417;stroke-miterlimit:4;stroke-dasharray:none"
         d="m 1.8174001,117.92909 c -4.3759459,10.43974 -4.5462589,15.26537 -6.2956041,20.06905 -1.9913817,5.46831 1.477395,12.84609 -2.2865641,12.84609 -3.7639589,0 -0.417562,-4.64021 -5.3632539,-14.63378 -2.748587,-5.55396 -5.259738,-9.18584 -8.267249,-20.09876 -3.230934,-11.72362 -4.846525,-21.940165 -1.459919,-28.986055 3.274369,-6.812378 10.518729,-22.103087 14.2826884,-22.103087 0,0 12.8208719,10.968832 13.0710884,19.276019 0.2632738,8.740687 6.8193492,8.579296 -3.6811867,33.630523 z"
         sodipodi:nodetypes="sssssssss" />
      <path
         id="path7404"
         style="fill:#d8c1b1;fill-opacity:1;stroke:#000000;stroke-width:0.11033125;stroke-miterlimit:4;stroke-dasharray:none"
         d="m -6.9720911,109.57272 c -2.9909858,5.12628 -0.9411457,25.15194 -0.4637359,34.92635 -0.2244875,-10.9979 -2.0465057,-27.43069 -3.337899,-33.04904 -2.24737,-9.48417 -1.37908,-18.898205 0.486303,-24.209146 1.7277395,-4.919056 1.8317728,-12.844176 2.9207953,-12.844176 0,0 -0.905046,6.653906 0.1470438,13.206619 1.1406815,7.104487 2.7807688,2.020184 0.2474928,21.969393 z"
         sodipodi:nodetypes="cccsssc" />
    </g>
    <g
       id="g21503"
       transform="translate(-5.2502679,14.94307)">
      <ellipse
         style="fill:#ffffff;fill-opacity:1;stroke:#000000;stroke-width:0.08704792;stroke-miterlimit:4;stroke-dasharray:none;stroke-opacity:1"
         id="path19921"
         cx="37.410572"
         cy="12.565385"
         rx="11.812837"
         ry="20.665722" />
      <ellipse
         style="fill:#f4d7d7;fill-opacity:1;stroke:#000000;stroke-width:0.139711;stroke-miterlimit:4;stroke-dasharray:none;stroke-opacity:1"
         id="ellipse20003"
         cx="37.55336"
         cy="19.562017"
         rx="6.3501096"
         ry="6.0645328" />
      <path
         id="ellipse20175"
         style="fill:#d8c1b1;fill-opacity:1;stroke:#000000;stroke-width:1.32947;stroke-miterlimit:4;stroke-dasharray:none;stroke-opacity:1"
         d="M 141.39453,-30.615234 A 44.646942,78.106665 0 0 0 96.982422,39.935547 h 88.847658 a 44.646942,78.106665 0 0 0 -44.43555,-70.550781 z"
         transform="scale(0.26458333)" />
      <g
         id="g20157"
         transform="matrix(2.0298128,0,0,0.99757749,-39.741808,14.826426)">
        <path
           style="fill:none;stroke:#000000;stroke-width:0.225231px;stroke-linecap:butt;stroke-linejoin:miter;stroke-opacity:1"
           d="m 31.69904,-16.90735 c 1.355328,4.158487 1.142306,8.3928143 1.142306,12.6236946"
           id="path20056" />
        <path
           style="fill:none;stroke:#000000;stroke-width:0.225231px;stroke-linecap:butt;stroke-linejoin:miter;stroke-opacity:1"
           d="m 33.566924,-17.311217 c 1.355328,4.158487 1.142306,8.3928145 1.142306,12.6236948"
           id="path20138" />
        <path
           style="fill:none;stroke:#000000;stroke-width:0.225231px;stroke-linecap:butt;stroke-linejoin:miter;stroke-opacity:1"
           d="m 35.232874,-17.3617 c 1.355328,4.158487 1.142306,8.3928142 1.142306,12.6236945"
           id="path20140" />
        <path
           style="fill:none;stroke:#000000;stroke-width:0.225231px;stroke-linecap:butt;stroke-linejoin:miter;stroke-opacity:1"
           d="m 36.848341,-17.21025 c 1.355328,4.158487 1.142306,8.3928142 1.142306,12.6236945"
           id="path20142" />
        <path
           style="fill:none;stroke:#000000;stroke-width:0.225231px;stroke-linecap:butt;stroke-linejoin:miter;stroke-opacity:1"
           d="m 38.413325,-16.654933 c 1.355328,4.158487 1.142306,8.392814 1.142306,12.6236943"
           id="path20144" />
        <path
           style="fill:none;stroke:#000000;stroke-width:0.225231px;stroke-linecap:butt;stroke-linejoin:miter;stroke-opacity:1"
           d="m 42.300543,-14.635599 c 1.355328,4.158487 1.142306,8.3928138 1.142306,12.6236941"
           id="path20146" />
        <path
           style="fill:none;stroke:#000000;stroke-width:0.225231px;stroke-linecap:butt;stroke-linejoin:miter;stroke-opacity:1"
           d="m 40.382175,-15.695749 c 1.355328,4.158487 1.142306,8.3928136 1.142306,12.6236939"
           id="path20148" />
      </g>
      <ellipse
         style="fill:#000000;fill-opacity:1;stroke:#000000;stroke-width:0.0506384;stroke-miterlimit:4;stroke-dasharray:none;stroke-opacity:1"
         id="ellipse21391"
         cx="37.55336"
         cy="19.562017"
         rx="2.396569"
         ry="2.1109922" />
    </g>
    <g
       id="g21529"
       transform="matrix(-1,0,0,1,107.62402,14.94307)">
      <ellipse
         style="fill:#ffffff;fill-opacity:1;stroke:#000000;stroke-width:0.08704792;stroke-miterlimit:4;stroke-dasharray:none;stroke-opacity:1"
         id="ellipse21505"
         cx="37.410572"
         cy="12.565385"
         rx="11.812837"
         ry="20.665722" />
      <ellipse
         style="fill:#f4d7d7;fill-opacity:1;stroke:#000000;stroke-width:0.139711;stroke-miterlimit:4;stroke-dasharray:none;stroke-opacity:1"
         id="ellipse21507"
         cx="37.55336"
         cy="19.562017"
         rx="6.3501096"
         ry="6.0645328" />
      <path
         id="path21509"
         style="fill:#d8c1b1;fill-opacity:1;stroke:#000000;stroke-width:1.32947;stroke-miterlimit:4;stroke-dasharray:none;stroke-opacity:1"
         d="M 141.39453,-30.615234 A 44.646942,78.106665 0 0 0 96.982422,39.935547 h 88.847658 a 44.646942,78.106665 0 0 0 -44.43555,-70.550781 z"
         transform="scale(0.26458333)" />
      <g
         id="g21525"
         transform="matrix(2.0298128,0,0,0.99757749,-39.741808,14.826426)">
        <path
           style="fill:none;stroke:#000000;stroke-width:0.225231px;stroke-linecap:butt;stroke-linejoin:miter;stroke-opacity:1"
           d="m 31.69904,-16.90735 c 1.355328,4.158487 1.142306,8.3928143 1.142306,12.6236946"
           id="path21511" />
        <path
           style="fill:none;stroke:#000000;stroke-width:0.225231px;stroke-linecap:butt;stroke-linejoin:miter;stroke-opacity:1"
           d="m 33.566924,-17.311217 c 1.355328,4.158487 1.142306,8.3928145 1.142306,12.6236948"
           id="path21513" />
        <path
           style="fill:none;stroke:#000000;stroke-width:0.225231px;stroke-linecap:butt;stroke-linejoin:miter;stroke-opacity:1"
           d="m 35.232874,-17.3617 c 1.355328,4.158487 1.142306,8.3928142 1.142306,12.6236945"
           id="path21515" />
        <path
           style="fill:none;stroke:#000000;stroke-width:0.225231px;stroke-linecap:butt;stroke-linejoin:miter;stroke-opacity:1"
           d="m 36.848341,-17.21025 c 1.355328,4.158487 1.142306,8.3928142 1.142306,12.6236945"
           id="path21517" />
        <path
           style="fill:none;stroke:#000000;stroke-width:0.225231px;stroke-linecap:butt;stroke-linejoin:miter;stroke-opacity:1"
           d="m 38.413325,-16.654933 c 1.355328,4.158487 1.142306,8.392814 1.142306,12.6236943"
           id="path21519" />
        <path
           style="fill:none;stroke:#000000;stroke-width:0.225231px;stroke-linecap:butt;stroke-linejoin:miter;stroke-opacity:1"
           d="m 42.300543,-14.635599 c 1.355328,4.158487 1.142306,8.3928138 1.142306,12.6236941"
           id="path21521" />
        <path
           style="fill:none;stroke:#000000;stroke-width:0.225231px;stroke-linecap:butt;stroke-linejoin:miter;stroke-opacity:1"
           d="m 40.382175,-15.695749 c 1.355328,4.158487 1.142306,8.3928136 1.142306,12.6236939"
           id="path21523" />
      </g>
      <ellipse
         style="fill:#000000;fill-opacity:1;stroke:#000000;stroke-width:0.0506384;stroke-miterlimit:4;stroke-dasharray:none;stroke-opacity:1"
         id="ellipse21527"
         cx="37.55336"
         cy="19.562017"
         rx="2.396569"
         ry="2.1109922" />
    </g>
    <path
       id="path21577"
       style="fill:#d8c1b1;fill-opacity:1;stroke:#000000;stroke-width:0.848929;stroke-miterlimit:4;stroke-dasharray:none"
       d="m -143.3881,314.28879 c -4.54676,7.74623 -1.43069,38.00664 -0.70495,52.77657 -0.34126,-16.61873 -3.11101,-41.45001 -5.07412,-49.9398 -3.41635,-14.33135 -2.09642,-28.55673 0.73925,-36.582 2.62643,-7.43309 2.78458,-19.4086 4.44006,-19.4086 0,0 -1.37581,10.0546 0.22353,19.95628 1.73401,10.73546 4.2272,3.05267 0.37623,33.19755 z"
       sodipodi:nodetypes="cccsssc" />
    <g
       id="g49549"
       transform="translate(-85.673079,-202.18846)"
       inkscape:export-filename="E:\PROJECTS\DICKY\dist\assets\graphics\backgrounds\mm_bg000.png"
       inkscape:export-xdpi="96"
       inkscape:export-ydpi="96">
      <rect
         style="fill:#ecd0c1;fill-opacity:1;stroke:none;stroke-width:0.400876;stroke-miterlimit:4;stroke-dasharray:none;stroke-opacity:1"
         id="rect19713"
         width="211.66667"
         height="211.66667"
         x="-172.12027"
         y="201.84296"
         inkscape:export-filename="E:\PROJECTS\DICKY\dist\assets\graphics\backgrounds\mm_bg000.png"
         inkscape:export-xdpi="96"
         inkscape:export-ydpi="96" />
      <g
         id="g49246"
         transform="matrix(0.85094736,0,0,1.279502,-10.300972,-85.566288)">
        <ellipse
           style="fill:#e5beaa;fill-opacity:1;stroke:#e8c3b1;stroke-width:0.172393;stroke-miterlimit:4;stroke-dasharray:none;stroke-opacity:1;filter:url(#filter38583)"
           id="path38501"
           cx="-69.109627"
           cy="306.13843"
           rx="76.011772"
           ry="78.867523"
           transform="matrix(1.0206124,0,0,0.81709169,1.4245123,55.995264)" />
        <ellipse
           style="fill:#deac92;fill-opacity:1;stroke:#e8c3b1;stroke-width:0.172556;stroke-miterlimit:4;stroke-dasharray:none;stroke-opacity:1;filter:url(#filter38583)"
           id="ellipse39951"
           cx="-69.109627"
           cy="306.13843"
           rx="76.011772"
           ry="78.867523"
           transform="matrix(0.57715827,0,0,0.66427672,-29.222435,102.7778)" />
      </g>
    </g>
    <g
       id="g49234"
       inkscape:export-filename="E:\PROJECTS\DICKY\dist\assets\graphics\backgrounds\backgroundDeco\vagina_000.png"
       inkscape:export-xdpi="96"
       inkscape:export-ydpi="96"
       transform="translate(-149.64231,-155.35385)">
      <path
         id="path21569"
         style="fill:#e3b9a4;fill-opacity:1;stroke:#e1b39c;stroke-width:0.12482;stroke-miterlimit:4;stroke-dasharray:none;stroke-opacity:1"
         d="m -65.613566,409.28623 c -0.363477,-0.11451 -2.867244,10.74945 -6.402539,20.56091 -3.969455,11.01637 -10.957527,24.18032 -12.965984,40.16022 -2.085405,16.5921 8.087245,26.15653 12.363908,36.1759 4.276663,10.01937 8.218378,14.35613 8.268448,19.99597 0.02987,3.36523 3.594956,-12.33237 6.814748,-23.02205 3.327758,-11.04814 12.474527,-17.63338 11.605607,-34.55724 -0.825344,-16.07518 -7.32019,-27.797 -11.351086,-38.46149 -4.030895,-10.66449 -8.595494,-15.31461 -8.297995,-20.29094 0.02197,-0.36749 0.0095,-0.54722 -0.03511,-0.56128 z m 0.822662,47.35292 c 0,0 -0.779044,5.4659 0.126383,10.84862 0.98167,5.83597 2.393114,1.65943 0.212978,18.04666 -1.073803,1.75669 -1.391195,5.64565 -1.368273,10.16233 h -0.509921 c -0.462032,-3.68955 -0.96188,-6.82795 -1.393434,-8.62008 -1.934085,-7.79076 -1.186702,-15.52402 0.418644,-19.88669 1.486892,-4.04074 1.576411,-10.55084 2.513623,-10.55084 z" />
      <path
         id="path21571"
         style="fill:#ebc8b7;fill-opacity:1;stroke:#ebcbbb;stroke-width:0.149229;stroke-miterlimit:4;stroke-dasharray:none;stroke-opacity:1"
         d="m -65.375426,423.50393 c -0.022,-0.0266 -0.05459,0.19794 -0.07431,0.70062 -0.02331,0.59447 -0.03222,1.0793 -0.02486,1.51417 0.141341,-1.38117 0.136806,-2.1692 0.09918,-2.21479 z m -0.09918,2.21479 c -0.21681,2.1186 -0.779912,5.64315 -2.116335,10.10473 -2.58043,8.61465 -5.85917,10.49755 -8.262304,22.6622 -2.578151,13.05058 1.530323,31.31066 5.243734,40.24392 3.112997,7.48887 6.453936,14.14339 6.652674,18.64279 -0.0021,-2.483 0.228412,-12.25204 2.717824,-18.71161 3.216664,-8.34665 9.543193,-27.37036 7.304482,-40.71166 -2.152433,-12.82715 -5.521333,-13.43069 -8.400095,-21.89304 -2.457308,-7.22344 -3.098175,-7.86738 -3.13998,-10.33733 z m 1.517769,91.65364 c 6.22e-4,0.64843 0.01376,0.91872 0.01053,0.36265 -7.36e-4,-0.11897 -0.0052,-0.24046 -0.01053,-0.36265 z m -0.834071,-60.73321 c 0,0 -0.779044,5.4659 0.126383,10.84862 0.98167,5.83597 2.393114,1.65943 0.212978,18.04666 -1.073803,1.75669 -1.391195,5.64565 -1.368273,10.16233 h -0.509921 c -0.462032,-3.68955 -0.96188,-6.82795 -1.393434,-8.62008 -1.934085,-7.79076 -1.186702,-15.52402 0.418644,-19.88669 1.486892,-4.04074 1.576411,-10.55084 2.513623,-10.55084 z" />
      <path
         id="path21573"
         style="fill:#e1c2a8;fill-opacity:1;stroke:#ecccbd;stroke-width:0.158081;stroke-opacity:1"
         d="m -65.227688,437.64831 c -0.01161,-0.0186 -0.02879,0.13881 -0.0392,0.49105 -0.0076,0.25863 -9.05e-4,0.48252 0.01258,0.69332 0.04687,-0.73385 0.04376,-1.1568 0.02662,-1.18437 z m -0.02662,1.18437 c -0.09078,1.42135 -0.374229,4.04208 -1.142716,7.44806 -1.362009,6.03653 -3.09267,7.3561 -4.361098,15.88019 -1.360807,9.14491 0.0703,22.17478 2.030323,28.43457 1.68773,5.39017 2.274519,9.3433 2.288356,12.49679 0.0083,1.88165 2.229456,-6.25003 3.886577,-11.95854 1.697827,-5.84874 3.76053,-19.93989 3.363783,-29.34869 -0.398801,-9.4575 -1.930903,-9.41131 -3.45038,-15.3411 -1.383607,-5.39957 -2.483131,-5.554 -2.614845,-7.61128 z m 0.463405,17.80647 c 0,0 -0.779044,5.4659 0.126383,10.84862 0.98167,5.83597 2.393114,1.65943 0.212979,18.04666 -1.073803,1.75669 -1.391195,5.64565 -1.368273,10.16233 h -0.509922 c -0.462031,-3.68955 -0.96188,-6.82795 -1.393434,-8.62008 -1.934085,-7.79076 -1.186702,-15.52402 0.418645,-19.88669 1.486891,-4.04074 1.576411,-10.55084 2.513622,-10.55084 z" />
      <path
         id="path21575"
         style="fill:#e3baa6;fill-opacity:1;stroke:#d99f81;stroke-width:0.11;stroke-miterlimit:4;stroke-dasharray:none;stroke-opacity:1"
         d="m -64.968192,448.93882 c -3.23926,0 -9.473729,12.56049 -12.291647,18.15651 -2.91451,5.78783 -1.524313,14.18024 1.256226,23.81059 2.588261,8.9644 4.749477,11.94774 7.114908,16.51002 4.256258,8.20919 1.376361,12.02091 4.615621,12.02091 3.239258,0 0.253934,-6.0606 1.967717,-10.55253 1.505484,-3.94598 1.65216,-7.90988 5.418095,-16.48558 9.036751,-20.57827 3.394639,-20.44578 3.168065,-27.62579 -0.215335,-6.82392 -11.248985,-15.83413 -11.248985,-15.83413 z m 0.177288,7.70033 c 0,0 -0.779044,5.4659 0.126383,10.84862 0.98167,5.83597 2.393114,1.65943 0.212978,18.04666 -1.073803,1.75669 -1.391195,5.64565 -1.368273,10.16233 h -0.509921 c -0.462032,-3.68955 -0.96188,-6.82795 -1.393434,-8.62008 -1.934085,-7.79076 -1.186702,-15.52402 0.418644,-19.88669 1.486892,-4.04074 1.576411,-10.55084 2.513623,-10.55084 z" />
      <path
         id="path24486"
         style="fill:#d8c1b1;fill-opacity:1;stroke:#deac92;stroke-width:0.470949;stroke-miterlimit:4;stroke-dasharray:none;stroke-opacity:1"
         d="m -65.819524,494.81466 c -1.43e-4,0.0271 -4.86e-4,0.0543 -5.66e-4,0.0815 1.19e-4,-0.0272 4.58e-4,-0.0543 5.66e-4,-0.0815 z m -0.510213,0.8821 c 0.261467,2.08794 0.509838,4.34965 0.727288,6.65335 -0.119571,-2.25389 -0.206845,-4.52243 -0.21766,-6.65335 z m 0.727288,6.65335 c 0.23452,4.42062 0.593265,8.77511 0.751863,11.87452 -0.07572,-3.54092 -0.364009,-7.76564 -0.751863,-11.87452 z" />
    </g>
  </g>
</svg>
